<svg width="40" height="40" viewBox="0 0 40 40" fill="none" xmlns="http://www.w3.org/2000/svg">
<path d="M37 20.5652C37 10.8632 29.166 3 19.5 3C9.83398 3 2 10.8632 2 20.5652C2 28.7989 7.65332 35.7152 15.2754 37.6158V25.9308H11.666V20.5652H15.2754V18.2529C15.2754 12.2766 17.9688 9.50461 23.8203 9.50461C24.9277 9.50461 26.8418 9.72417 27.6279 9.94374V14.8016C27.2178 14.7604 26.5 14.733 25.6045 14.733C22.7334 14.733 21.626 15.824 21.626 18.6577V20.5652H27.3408L26.3564 25.9308H21.6191V38C30.2871 36.9502 37 29.5468 37 20.5652Z" fill="#0961B6"/>
</svg>
