<svg width="41" height="40" viewBox="0 0 41 40" fill="none" xmlns="http://www.w3.org/2000/svg">
<path d="M20.5039 13.0392C15.5379 13.0392 11.5323 16.8167 11.5323 21.5C11.5323 26.1833 15.5379 29.9608 20.5039 29.9608C25.4699 29.9608 29.4755 26.1833 29.4755 21.5C29.4755 16.8167 25.4699 13.0392 20.5039 13.0392ZM20.5039 27.0006C17.2948 27.0006 14.6712 24.5338 14.6712 21.5C14.6712 18.4662 17.287 15.9994 20.5039 15.9994C23.7209 15.9994 26.3366 18.4662 26.3366 21.5C26.3366 24.5338 23.7131 27.0006 20.5039 27.0006ZM31.935 12.6931C31.935 13.7903 30.9981 14.6666 29.8424 14.6666C28.679 14.6666 27.7499 13.7829 27.7499 12.6931C27.7499 11.6033 28.6868 10.7197 29.8424 10.7197C30.9981 10.7197 31.935 11.6033 31.935 12.6931ZM37.877 14.696C37.7443 12.0525 37.104 9.71087 35.0505 7.7816C33.0047 5.85234 30.5218 5.24852 27.7186 5.11598C24.8296 4.96134 16.1704 4.96134 13.2814 5.11598C10.4861 5.24116 8.00307 5.84497 5.94953 7.77424C3.89598 9.7035 3.26352 12.0451 3.12298 14.6887C2.95901 17.4132 2.95901 25.5794 3.12298 28.304C3.25572 30.9475 3.89598 33.2891 5.94953 35.2184C8.00307 37.1477 10.4782 37.7515 13.2814 37.884C16.1704 38.0387 24.8296 38.0387 27.7186 37.884C30.5218 37.7588 33.0047 37.155 35.0505 35.2184C37.0962 33.2891 37.7365 30.9475 37.877 28.304C38.041 25.5794 38.041 17.4206 37.877 14.696ZM34.1447 31.2273C33.5357 32.6706 32.3567 33.7825 30.8185 34.3642C28.5151 35.2258 23.0494 35.0269 20.5039 35.0269C17.9585 35.0269 12.4849 35.2184 10.1893 34.3642C8.65895 33.7899 7.47992 32.678 6.86308 31.2273C5.94953 29.0551 6.16035 23.9005 6.16035 21.5C6.16035 19.0995 5.95733 13.9376 6.86308 11.7727C7.47211 10.3294 8.65114 9.2175 10.1893 8.63578C12.4927 7.77424 17.9585 7.97306 20.5039 7.97306C23.0494 7.97306 28.5229 7.7816 30.8185 8.63578C32.3489 9.21014 33.5279 10.322 34.1447 11.7727C35.0583 13.9449 34.8475 19.0995 34.8475 21.5C34.8475 23.9005 35.0583 29.0624 34.1447 31.2273Z" fill="#0961B6"/>
</svg>
