<svg width="68" height="44" viewBox="0 0 68 44" fill="none" xmlns="http://www.w3.org/2000/svg">
<g filter="url(#filter0_d_3025_1534)">
<mask id="path-1-outside-1_3025_1534" maskUnits="userSpaceOnUse" x="-0.723633" y="-0.184021" width="68" height="43" fill="black">
<rect fill="white" x="-0.723633" y="-0.184021" width="68" height="43"/>
<path d="M7.63637 21.216C7.52437 22.448 7.4497 23.736 7.41237 25.08C7.37503 26.3866 7.4497 27.656 7.63637 28.888C7.82303 30.0826 8.1217 31.184 8.53237 32.192C8.98037 33.1626 9.59637 33.9466 10.3804 34.544C11.2017 35.1413 12.2284 35.44 13.4604 35.44C14.991 35.4773 16.3724 35.104 17.6044 34.32C18.8737 33.4986 19.975 32.3973 20.9084 31.016C21.879 29.6346 22.663 28.104 23.2604 26.424C23.895 24.7066 24.3244 22.9706 24.5484 21.216C24.6604 19.9466 24.735 18.6586 24.7724 17.352C24.8097 16.0453 24.735 14.776 24.5484 13.544C24.399 12.312 24.1004 11.2106 23.6524 10.24C23.2044 9.23198 22.5697 8.44798 21.7484 7.88798C20.9644 7.29064 19.9564 6.97331 18.7244 6.93598C17.1937 6.93598 15.7937 7.34664 14.5244 8.16798C13.2924 8.95198 12.191 10.0346 11.2204 11.416C10.287 12.7973 9.5217 14.3466 8.92437 16.064C8.32703 17.744 7.8977 19.4613 7.63637 21.216ZM1.25237 21.216C1.58837 18.5653 2.26037 16.0266 3.26837 13.6C4.27637 11.1733 5.56437 9.00798 7.13237 7.10398C8.70037 5.19998 10.511 3.70664 12.5644 2.62398C14.6177 1.54131 16.8764 0.999978 19.3404 0.999978C21.3564 0.999978 23.0737 1.39198 24.4924 2.17598C25.9484 2.92264 27.143 3.96798 28.0764 5.31198C29.047 6.61864 29.775 8.13064 30.2604 9.84798C30.783 11.5653 31.0817 13.4133 31.1564 15.392C31.2684 17.3333 31.1937 19.2746 30.9324 21.216C30.5964 23.8666 29.9244 26.4053 28.9164 28.832C27.9084 31.2213 26.6204 33.368 25.0524 35.272C23.5217 37.176 21.711 38.6693 19.6204 39.752C17.567 40.8346 15.3084 41.376 12.8444 41.376C10.8657 41.376 9.14837 41.0026 7.69237 40.256C6.2737 39.472 5.07903 38.4266 4.10837 37.12C3.1377 35.8133 2.4097 34.3013 1.92437 32.584C1.43903 30.8293 1.14037 28.9813 1.02837 27.04C0.953701 25.0986 1.02837 23.1573 1.25237 21.216ZM33.0293 33.256L59.8533 1.67198L63.8853 1.61598L57.1653 40.816H50.5013L52.1813 30.96L52.6853 30.344L55.5413 13.768L43.5573 28.048H56.3813L57.4453 27.6H65.5093L64.5013 33.312L33.0293 33.256Z"/>
</mask>
<path d="M7.63637 21.216C7.52437 22.448 7.4497 23.736 7.41237 25.08C7.37503 26.3866 7.4497 27.656 7.63637 28.888C7.82303 30.0826 8.1217 31.184 8.53237 32.192C8.98037 33.1626 9.59637 33.9466 10.3804 34.544C11.2017 35.1413 12.2284 35.44 13.4604 35.44C14.991 35.4773 16.3724 35.104 17.6044 34.32C18.8737 33.4986 19.975 32.3973 20.9084 31.016C21.879 29.6346 22.663 28.104 23.2604 26.424C23.895 24.7066 24.3244 22.9706 24.5484 21.216C24.6604 19.9466 24.735 18.6586 24.7724 17.352C24.8097 16.0453 24.735 14.776 24.5484 13.544C24.399 12.312 24.1004 11.2106 23.6524 10.24C23.2044 9.23198 22.5697 8.44798 21.7484 7.88798C20.9644 7.29064 19.9564 6.97331 18.7244 6.93598C17.1937 6.93598 15.7937 7.34664 14.5244 8.16798C13.2924 8.95198 12.191 10.0346 11.2204 11.416C10.287 12.7973 9.5217 14.3466 8.92437 16.064C8.32703 17.744 7.8977 19.4613 7.63637 21.216ZM1.25237 21.216C1.58837 18.5653 2.26037 16.0266 3.26837 13.6C4.27637 11.1733 5.56437 9.00798 7.13237 7.10398C8.70037 5.19998 10.511 3.70664 12.5644 2.62398C14.6177 1.54131 16.8764 0.999978 19.3404 0.999978C21.3564 0.999978 23.0737 1.39198 24.4924 2.17598C25.9484 2.92264 27.143 3.96798 28.0764 5.31198C29.047 6.61864 29.775 8.13064 30.2604 9.84798C30.783 11.5653 31.0817 13.4133 31.1564 15.392C31.2684 17.3333 31.1937 19.2746 30.9324 21.216C30.5964 23.8666 29.9244 26.4053 28.9164 28.832C27.9084 31.2213 26.6204 33.368 25.0524 35.272C23.5217 37.176 21.711 38.6693 19.6204 39.752C17.567 40.8346 15.3084 41.376 12.8444 41.376C10.8657 41.376 9.14837 41.0026 7.69237 40.256C6.2737 39.472 5.07903 38.4266 4.10837 37.12C3.1377 35.8133 2.4097 34.3013 1.92437 32.584C1.43903 30.8293 1.14037 28.9813 1.02837 27.04C0.953701 25.0986 1.02837 23.1573 1.25237 21.216ZM33.0293 33.256L59.8533 1.67198L63.8853 1.61598L57.1653 40.816H50.5013L52.1813 30.96L52.6853 30.344L55.5413 13.768L43.5573 28.048H56.3813L57.4453 27.6H65.5093L64.5013 33.312L33.0293 33.256Z" fill="#023E78"/>
<path d="M7.63637 21.216L6.64728 21.0687L6.64306 21.097L6.64047 21.1254L7.63637 21.216ZM7.41237 25.08L8.41196 25.1085L8.41198 25.1077L7.41237 25.08ZM7.63637 28.888L6.64764 29.0378L6.64836 29.0424L7.63637 28.888ZM8.53237 32.192L7.60628 32.5693L7.61487 32.5904L7.62441 32.611L8.53237 32.192ZM10.3804 34.544L9.77432 35.3394L9.78319 35.3462L9.7922 35.3527L10.3804 34.544ZM13.4604 35.44L13.4848 34.4403L13.4726 34.44H13.4604V35.44ZM17.6044 34.32L18.1413 35.1637L18.1476 35.1595L17.6044 34.32ZM20.9084 31.016L20.0902 30.441L20.0849 30.4485L20.0798 30.4561L20.9084 31.016ZM23.2604 26.424L22.3223 26.0773L22.3182 26.089L23.2604 26.424ZM24.5484 21.216L25.5403 21.3426L25.5428 21.3233L25.5445 21.3039L24.5484 21.216ZM24.7724 17.352L25.772 17.3805L25.772 17.3805L24.7724 17.352ZM24.5484 13.544L23.5556 13.6643L23.5574 13.6791L23.5597 13.6938L24.5484 13.544ZM23.6524 10.24L22.7386 10.6461L22.7414 10.6526L22.7444 10.659L23.6524 10.24ZM21.7484 7.88798L21.1423 8.68341L21.1633 8.69937L21.185 8.71421L21.7484 7.88798ZM18.7244 6.93598L18.7547 5.93644L18.7395 5.93598H18.7244V6.93598ZM14.5244 8.16798L15.0613 9.01167L15.0676 9.00755L14.5244 8.16798ZM11.2204 11.416L10.4022 10.841L10.3969 10.8485L10.3918 10.8561L11.2204 11.416ZM8.92437 16.064L9.8666 16.399L9.86886 16.3925L8.92437 16.064ZM1.25237 21.216L0.260244 21.0902L0.258958 21.1014L1.25237 21.216ZM3.26837 13.6L2.34487 13.2164L2.34487 13.2164L3.26837 13.6ZM7.13237 7.10398L6.36044 6.46827L6.36044 6.46827L7.13237 7.10398ZM12.5644 2.62398L12.098 1.73941L12.098 1.73941L12.5644 2.62398ZM24.4924 2.17598L24.0087 3.05122L24.0223 3.05872L24.0361 3.06579L24.4924 2.17598ZM28.0764 5.31198L27.255 5.88237L27.2641 5.89549L27.2736 5.9083L28.0764 5.31198ZM30.2604 9.84798L29.2981 10.1199L29.3008 10.1296L29.3037 10.1391L30.2604 9.84798ZM31.1564 15.392L30.1571 15.4297L30.1575 15.4396L30.158 15.4496L31.1564 15.392ZM30.9324 21.216L29.9413 21.0826L29.9403 21.0902L30.9324 21.216ZM28.9164 28.832L29.8377 29.2207L29.8399 29.2156L28.9164 28.832ZM25.0524 35.272L24.2804 34.6362L24.273 34.6454L25.0524 35.272ZM19.6204 39.752L19.1605 38.864L19.154 38.8674L19.6204 39.752ZM7.69237 40.256L7.20868 41.1312L7.22225 41.1387L7.23605 41.1458L7.69237 40.256ZM4.10837 37.12L4.91111 36.5237L4.91111 36.5237L4.10837 37.12ZM1.92437 32.584L0.960541 32.8506L0.962058 32.8559L1.92437 32.584ZM1.02837 27.04L0.0291061 27.0784L0.0294748 27.088L0.0300273 27.0976L1.02837 27.04ZM7.63637 21.216L6.64047 21.1254C6.52642 22.38 6.45062 23.689 6.41275 25.0522L7.41237 25.08L8.41198 25.1077C8.44878 23.7829 8.52231 22.5159 8.63226 21.3065L7.63637 21.216ZM7.41237 25.08L6.41278 25.0514C6.37382 26.4148 6.45162 27.744 6.64765 29.0378L7.63637 28.888L8.62508 28.7382C8.44778 27.568 8.37625 26.3585 8.41196 25.1085L7.41237 25.08ZM7.63637 28.888L6.64836 29.0424C6.84567 30.3051 7.1634 31.4822 7.60628 32.5693L8.53237 32.192L9.45846 31.8147C9.08001 30.8857 8.8004 29.8601 8.62438 28.7336L7.63637 28.888ZM8.53237 32.192L7.62441 32.611C8.13489 33.7171 8.84967 34.6349 9.77432 35.3394L10.3804 34.544L10.9864 33.7485C10.3431 33.2584 9.82585 32.6082 9.44033 31.7729L8.53237 32.192ZM10.3804 34.544L9.7922 35.3527C10.8182 36.0989 12.063 36.44 13.4604 36.44V35.44V34.44C12.3937 34.44 11.5852 34.1837 10.9685 33.7352L10.3804 34.544ZM13.4604 35.44L13.436 36.4397C15.1549 36.4816 16.7334 36.0595 18.1412 35.1636L17.6044 34.32L17.0675 33.4763C16.0113 34.1484 14.8272 34.473 13.4848 34.4403L13.4604 35.44ZM17.6044 34.32L18.1476 35.1595C19.541 34.2579 20.7361 33.0572 21.737 31.5758L20.9084 31.016L20.0798 30.4561C19.214 31.7375 18.2064 32.7393 17.0611 33.4804L17.6044 34.32ZM20.9084 31.016L21.7266 31.5909C22.7521 30.1315 23.5766 28.5194 24.2026 26.759L23.2604 26.424L22.3182 26.089C21.7494 27.6885 21.006 29.1377 20.0902 30.441L20.9084 31.016ZM23.2604 26.424L24.1984 26.7706C24.8584 24.9847 25.3064 23.175 25.5403 21.3426L24.5484 21.216L23.5564 21.0893C23.3423 22.7663 22.9317 24.4286 22.3224 26.0773L23.2604 26.424ZM24.5484 21.216L25.5445 21.3039C25.6583 20.0143 25.7341 18.7065 25.772 17.3805L24.7724 17.352L23.7728 17.3234C23.736 18.6108 23.6625 19.879 23.5522 21.1281L24.5484 21.216ZM24.7724 17.352L25.772 17.3805C25.8109 16.0171 25.7331 14.688 25.5371 13.3942L24.5484 13.544L23.5597 13.6938C23.737 14.864 23.8085 16.0735 23.7728 17.3234L24.7724 17.352ZM24.5484 13.544L25.5411 13.4236C25.3812 12.1045 25.0583 10.8999 24.5603 9.82092L23.6524 10.24L22.7444 10.659C23.1424 11.5213 23.4169 12.5194 23.5556 13.6643L24.5484 13.544ZM23.6524 10.24L24.5662 9.83384C24.0512 8.67516 23.3031 7.73772 22.3117 7.06175L21.7484 7.88798L21.185 8.71421C21.8363 9.15824 22.3575 9.78879 22.7386 10.6461L23.6524 10.24ZM21.7484 7.88798L22.3544 7.09255C21.3669 6.34019 20.1424 5.97849 18.7547 5.93644L18.7244 6.93598L18.6941 7.93552C19.7703 7.96813 20.5618 8.2411 21.1423 8.68341L21.7484 7.88798ZM18.7244 6.93598V5.93598C17.0035 5.93598 15.4144 6.40098 13.9811 7.32841L14.5244 8.16798L15.0676 9.00755C16.173 8.29231 17.3839 7.93598 18.7244 7.93598V6.93598ZM14.5244 8.16798L13.9875 7.32432C12.6292 8.18871 11.4365 9.36912 10.4022 10.841L11.2204 11.416L12.0386 11.9909C12.9456 10.7002 13.9556 9.71525 15.0612 9.01164L14.5244 8.16798ZM11.2204 11.416L10.3918 10.8561C9.40579 12.3154 8.6031 13.9437 7.97987 15.7355L8.92437 16.064L9.86886 16.3925C10.4403 14.7496 11.1683 13.2792 12.049 11.9758L11.2204 11.416ZM8.92437 16.064L7.98215 15.729C7.36328 17.4696 6.91818 19.2497 6.64728 21.0687L7.63637 21.216L8.62546 21.3633C8.87722 19.6729 9.29079 18.0184 9.86658 16.399L8.92437 16.064ZM1.25237 21.216L2.24443 21.3417C2.56939 18.7782 3.21871 16.3264 4.19186 13.9836L3.26837 13.6L2.34487 13.2164C1.30202 15.7269 0.60735 18.3524 0.260306 21.0902L1.25237 21.216ZM3.26837 13.6L4.19186 13.9836C5.16452 11.642 6.40294 9.56277 7.9043 7.73968L7.13237 7.10398L6.36044 6.46827C4.7258 8.45319 3.38822 10.7046 2.34487 13.2164L3.26837 13.6ZM7.13237 7.10398L7.9043 7.73968C9.39332 5.93158 11.102 4.52553 13.0308 3.50855L12.5644 2.62398L12.098 1.73941C9.92006 2.88775 8.00741 4.46837 6.36044 6.46827L7.13237 7.10398ZM12.5644 2.62398L13.0308 3.50855C14.9315 2.50635 17.0286 1.99998 19.3404 1.99998V0.999978V-2.24113e-05C16.7241 -2.24113e-05 14.3039 0.576273 12.098 1.73941L12.5644 2.62398ZM19.3404 0.999978V1.99998C21.2278 1.99998 22.77 2.36669 24.0087 3.05122L24.4924 2.17598L24.9761 1.30073C23.3774 0.417259 21.4849 -2.24113e-05 19.3404 -2.24113e-05V0.999978ZM24.4924 2.17598L24.0361 3.06579C25.346 3.73756 26.4153 4.67319 27.255 5.88237L28.0764 5.31198L28.8977 4.74158C27.8708 3.26276 26.5507 2.10773 24.9487 1.28616L24.4924 2.17598ZM28.0764 5.31198L27.2736 5.9083C28.1652 7.10846 28.8426 8.50825 29.2981 10.1199L30.2604 9.84798L31.2227 9.57602C30.7075 7.75304 29.9289 6.12883 28.8791 4.71565L28.0764 5.31198ZM30.2604 9.84798L29.3037 10.1391C29.7989 11.7662 30.0853 13.5282 30.1571 15.4297L31.1564 15.392L32.1557 15.3543C32.0781 13.2984 31.7672 11.3644 31.217 9.55682L30.2604 9.84798ZM31.1564 15.392L30.158 15.4496C30.2663 17.3267 30.1942 19.2041 29.9413 21.0826L30.9324 21.216L31.9234 21.3494C32.1932 19.3452 32.2704 17.3399 32.1547 15.3344L31.1564 15.392ZM30.9324 21.216L29.9403 21.0902C29.6154 23.6538 28.966 26.1056 27.9929 28.4484L28.9164 28.832L29.8399 29.2156C30.8827 26.705 31.5774 24.0795 31.9244 21.3417L30.9324 21.216ZM28.9164 28.832L27.995 28.4433C27.0227 30.7481 25.7839 32.8107 24.2804 34.6363L25.0524 35.272L25.8243 35.9077C27.4569 33.9253 28.7941 31.6946 29.8377 29.2207L28.9164 28.832ZM25.0524 35.272L24.273 34.6454C22.8261 36.4452 21.123 37.8477 19.1605 38.864L19.6204 39.752L20.0802 40.64C22.2991 39.4909 24.2173 37.9068 25.8317 35.8985L25.0524 35.272ZM19.6204 39.752L19.154 38.8674C17.2532 39.8696 15.1561 40.376 12.8444 40.376V41.376V42.376C15.4606 42.376 17.8808 41.7997 20.0868 40.6365L19.6204 39.752ZM12.8444 41.376V40.376C10.9915 40.376 9.43689 40.0268 8.14868 39.3662L7.69237 40.256L7.23605 41.1458C8.85984 41.9785 10.7399 42.376 12.8444 42.376V41.376ZM7.69237 40.256L8.17605 39.3807C6.88299 38.6662 5.79695 37.7161 4.91111 36.5237L4.10837 37.12L3.30562 37.7163C4.36112 39.1372 5.66441 40.2778 7.20868 41.1312L7.69237 40.256ZM4.10837 37.12L4.91111 36.5237C4.01957 35.3235 3.34215 33.9237 2.88668 32.312L1.92437 32.584L0.962058 32.8559C1.47725 34.6789 2.25583 36.3031 3.30562 37.7163L4.10837 37.12ZM1.92437 32.584L2.88818 32.3174C2.42295 30.6354 2.1349 28.8578 2.02671 26.9824L1.02837 27.04L0.0300273 27.0976C0.14583 29.1048 0.455113 31.0232 0.960556 32.8506L1.92437 32.584ZM1.02837 27.04L2.02763 27.0015C1.95494 25.1116 2.0276 23.2214 2.24578 21.3306L1.25237 21.216L0.258958 21.1014C0.0291322 23.0932 -0.0475371 25.0857 0.0291061 27.0784L1.02837 27.04ZM33.0293 33.256L32.2671 32.6086L30.8713 34.2521L33.0275 34.256L33.0293 33.256ZM59.8533 1.67198L59.8394 0.672072L59.3852 0.678381L59.0911 1.02464L59.8533 1.67198ZM63.8853 1.61598L64.8709 1.78494L65.0742 0.599368L63.8714 0.616073L63.8853 1.61598ZM57.1653 40.816V41.816H58.0085L58.1509 40.9849L57.1653 40.816ZM50.5013 40.816L49.5155 40.6479L49.3164 41.816H50.5013V40.816ZM52.1813 30.96L51.4073 30.3267L51.2399 30.5313L51.1955 30.7919L52.1813 30.96ZM52.6853 30.344L53.4593 30.9772L53.6261 30.7734L53.6708 30.5138L52.6853 30.344ZM55.5413 13.768L56.5268 13.9378L57.1555 10.289L54.7753 13.1251L55.5413 13.768ZM43.5573 28.048L42.7913 27.4051L41.4126 29.048H43.5573V28.048ZM56.3813 28.048V29.048H56.5832L56.7694 28.9696L56.3813 28.048ZM57.4453 27.6V26.6H57.2434L57.0572 26.6783L57.4453 27.6ZM65.5093 27.6L66.4941 27.7738L66.7012 26.6H65.5093V27.6ZM64.5013 33.312L64.4995 34.312L65.34 34.3135L65.4861 33.4858L64.5013 33.312ZM33.0293 33.256L33.7915 33.9033L60.6155 2.31931L59.8533 1.67198L59.0911 1.02464L32.2671 32.6086L33.0293 33.256ZM59.8533 1.67198L59.8672 2.67188L63.8992 2.61588L63.8853 1.61598L63.8714 0.616073L59.8394 0.672072L59.8533 1.67198ZM63.8853 1.61598L62.8997 1.44701L56.1797 40.647L57.1653 40.816L58.1509 40.9849L64.8709 1.78494L63.8853 1.61598ZM57.1653 40.816V39.816H50.5013V40.816V41.816H57.1653V40.816ZM50.5013 40.816L51.4871 40.984L53.1671 31.128L52.1813 30.96L51.1955 30.7919L49.5155 40.6479L50.5013 40.816ZM52.1813 30.96L52.9553 31.5932L53.4593 30.9772L52.6853 30.344L51.9113 29.7107L51.4073 30.3267L52.1813 30.96ZM52.6853 30.344L53.6708 30.5138L56.5268 13.9378L55.5413 13.768L54.5558 13.5982L51.6998 30.1742L52.6853 30.344ZM55.5413 13.768L54.7753 13.1251L42.7913 27.4051L43.5573 28.048L44.3233 28.6908L56.3073 14.4108L55.5413 13.768ZM43.5573 28.048V29.048H56.3813V28.048V27.048H43.5573V28.048ZM56.3813 28.048L56.7694 28.9696L57.8334 28.5216L57.4453 27.6L57.0572 26.6783L55.9932 27.1263L56.3813 28.048ZM57.4453 27.6V28.6H65.5093V27.6V26.6H57.4453V27.6ZM65.5093 27.6L64.5245 27.4262L63.5165 33.1382L64.5013 33.312L65.4861 33.4858L66.4941 27.7738L65.5093 27.6ZM64.5013 33.312L64.5031 32.312L33.0311 32.256L33.0293 33.256L33.0275 34.256L64.4995 34.312L64.5013 33.312Z" fill="white" mask="url(#path-1-outside-1_3025_1534)"/>
</g>
<defs>
<filter id="filter0_d_3025_1534" x="0" y="0" width="67.7012" height="43.376" filterUnits="userSpaceOnUse" color-interpolation-filters="sRGB">
<feFlood flood-opacity="0" result="BackgroundImageFix"/>
<feColorMatrix in="SourceAlpha" type="matrix" values="0 0 0 0 0 0 0 0 0 0 0 0 0 0 0 0 0 0 127 0" result="hardAlpha"/>
<feOffset dx="1" dy="1"/>
<feComposite in2="hardAlpha" operator="out"/>
<feColorMatrix type="matrix" values="0 0 0 0 1 0 0 0 0 1 0 0 0 0 1 0 0 0 1 0"/>
<feBlend mode="normal" in2="BackgroundImageFix" result="effect1_dropShadow_3025_1534"/>
<feBlend mode="normal" in="SourceGraphic" in2="effect1_dropShadow_3025_1534" result="shape"/>
</filter>
</defs>
</svg>
