<svg width="60" height="44" viewBox="0 0 60 44" fill="none" xmlns="http://www.w3.org/2000/svg">
<g filter="url(#filter0_d_3025_1478)">
<mask id="path-1-outside-1_3025_1478" maskUnits="userSpaceOnUse" x="-0.723633" y="-0.828064" width="59" height="44" fill="black">
<rect fill="white" x="-0.723633" y="-0.828064" width="59" height="44"/>
<path d="M7.63637 21.5719C7.52437 22.8039 7.4497 24.0919 7.41237 25.4359C7.37503 26.7426 7.4497 28.0119 7.63637 29.2439C7.82303 30.4386 8.1217 31.5399 8.53237 32.5479C8.98037 33.5186 9.59637 34.3026 10.3804 34.8999C11.2017 35.4973 12.2284 35.7959 13.4604 35.7959C14.991 35.8333 16.3724 35.4599 17.6044 34.6759C18.8737 33.8546 19.975 32.7533 20.9084 31.3719C21.879 29.9906 22.663 28.4599 23.2604 26.7799C23.895 25.0626 24.3244 23.3266 24.5484 21.5719C24.6604 20.3026 24.735 19.0146 24.7724 17.7079C24.8097 16.4013 24.735 15.1319 24.5484 13.8999C24.399 12.6679 24.1004 11.5666 23.6524 10.5959C23.2044 9.58794 22.5697 8.80394 21.7484 8.24394C20.9644 7.6466 19.9564 7.32927 18.7244 7.29193C17.1937 7.29193 15.7937 7.7026 14.5244 8.52394C13.2924 9.30793 12.191 10.3906 11.2204 11.7719C10.287 13.1533 9.5217 14.7026 8.92437 16.4199C8.32703 18.0999 7.8977 19.8173 7.63637 21.5719ZM1.25237 21.5719C1.58837 18.9213 2.26037 16.3826 3.26837 13.9559C4.27637 11.5293 5.56437 9.36393 7.13237 7.45993C8.70037 5.55593 10.511 4.0626 12.5644 2.97993C14.6177 1.89727 16.8764 1.35593 19.3404 1.35593C21.3564 1.35593 23.0737 1.74793 24.4924 2.53193C25.9484 3.2786 27.143 4.32394 28.0764 5.66794C29.047 6.9746 29.775 8.4866 30.2604 10.2039C30.783 11.9213 31.0817 13.7693 31.1564 15.7479C31.2684 17.6893 31.1937 19.6306 30.9324 21.5719C30.5964 24.2226 29.9244 26.7613 28.9164 29.1879C27.9084 31.5773 26.6204 33.7239 25.0524 35.6279C23.5217 37.5319 21.711 39.0253 19.6204 40.1079C17.567 41.1906 15.3084 41.7319 12.8444 41.7319C10.8657 41.7319 9.14837 41.3586 7.69237 40.6119C6.2737 39.8279 5.07903 38.7826 4.10837 37.4759C3.1377 36.1693 2.4097 34.6573 1.92437 32.9399C1.43903 31.1853 1.14037 29.3373 1.02837 27.3959C0.953701 25.4546 1.02837 23.5133 1.25237 21.5719ZM39.9733 11.1559L41.0933 4.82793L56.9413 1.29994L50.1093 41.1719H43.6693L49.2693 8.69193L39.9733 11.1559Z"/>
</mask>
<path d="M7.63637 21.5719C7.52437 22.8039 7.4497 24.0919 7.41237 25.4359C7.37503 26.7426 7.4497 28.0119 7.63637 29.2439C7.82303 30.4386 8.1217 31.5399 8.53237 32.5479C8.98037 33.5186 9.59637 34.3026 10.3804 34.8999C11.2017 35.4973 12.2284 35.7959 13.4604 35.7959C14.991 35.8333 16.3724 35.4599 17.6044 34.6759C18.8737 33.8546 19.975 32.7533 20.9084 31.3719C21.879 29.9906 22.663 28.4599 23.2604 26.7799C23.895 25.0626 24.3244 23.3266 24.5484 21.5719C24.6604 20.3026 24.735 19.0146 24.7724 17.7079C24.8097 16.4013 24.735 15.1319 24.5484 13.8999C24.399 12.6679 24.1004 11.5666 23.6524 10.5959C23.2044 9.58794 22.5697 8.80394 21.7484 8.24394C20.9644 7.6466 19.9564 7.32927 18.7244 7.29193C17.1937 7.29193 15.7937 7.7026 14.5244 8.52394C13.2924 9.30793 12.191 10.3906 11.2204 11.7719C10.287 13.1533 9.5217 14.7026 8.92437 16.4199C8.32703 18.0999 7.8977 19.8173 7.63637 21.5719ZM1.25237 21.5719C1.58837 18.9213 2.26037 16.3826 3.26837 13.9559C4.27637 11.5293 5.56437 9.36393 7.13237 7.45993C8.70037 5.55593 10.511 4.0626 12.5644 2.97993C14.6177 1.89727 16.8764 1.35593 19.3404 1.35593C21.3564 1.35593 23.0737 1.74793 24.4924 2.53193C25.9484 3.2786 27.143 4.32394 28.0764 5.66794C29.047 6.9746 29.775 8.4866 30.2604 10.2039C30.783 11.9213 31.0817 13.7693 31.1564 15.7479C31.2684 17.6893 31.1937 19.6306 30.9324 21.5719C30.5964 24.2226 29.9244 26.7613 28.9164 29.1879C27.9084 31.5773 26.6204 33.7239 25.0524 35.6279C23.5217 37.5319 21.711 39.0253 19.6204 40.1079C17.567 41.1906 15.3084 41.7319 12.8444 41.7319C10.8657 41.7319 9.14837 41.3586 7.69237 40.6119C6.2737 39.8279 5.07903 38.7826 4.10837 37.4759C3.1377 36.1693 2.4097 34.6573 1.92437 32.9399C1.43903 31.1853 1.14037 29.3373 1.02837 27.3959C0.953701 25.4546 1.02837 23.5133 1.25237 21.5719ZM39.9733 11.1559L41.0933 4.82793L56.9413 1.29994L50.1093 41.1719H43.6693L49.2693 8.69193L39.9733 11.1559Z" fill="#023E78"/>
<path d="M7.63637 21.5719L6.64728 21.4246L6.64306 21.4529L6.64047 21.4814L7.63637 21.5719ZM7.41237 25.4359L8.41196 25.4645L8.41198 25.4637L7.41237 25.4359ZM7.63637 29.2439L6.64764 29.3937L6.64836 29.3983L7.63637 29.2439ZM8.53237 32.5479L7.60628 32.9252L7.61487 32.9463L7.62441 32.967L8.53237 32.5479ZM10.3804 34.8999L9.77432 35.6954L9.78319 35.7021L9.7922 35.7087L10.3804 34.8999ZM13.4604 35.7959L13.4848 34.7962L13.4726 34.7959H13.4604V35.7959ZM17.6044 34.6759L18.1413 35.5196L18.1476 35.5155L17.6044 34.6759ZM20.9084 31.3719L20.0902 30.797L20.0849 30.8045L20.0798 30.8121L20.9084 31.3719ZM23.2604 26.7799L22.3223 26.4333L22.3182 26.4449L23.2604 26.7799ZM24.5484 21.5719L25.5403 21.6986L25.5428 21.6792L25.5445 21.6598L24.5484 21.5719ZM24.7724 17.7079L25.772 17.7365L25.772 17.7365L24.7724 17.7079ZM24.5484 13.8999L23.5556 14.0203L23.5574 14.035L23.5597 14.0497L24.5484 13.8999ZM23.6524 10.5959L22.7386 11.0021L22.7414 11.0086L22.7444 11.015L23.6524 10.5959ZM21.7484 8.24394L21.1423 9.03937L21.1633 9.05533L21.185 9.07016L21.7484 8.24394ZM18.7244 7.29193L18.7547 6.29239L18.7395 6.29193H18.7244V7.29193ZM14.5244 8.52394L15.0613 9.36762L15.0676 9.36351L14.5244 8.52394ZM11.2204 11.7719L10.4022 11.197L10.3969 11.2045L10.3918 11.2121L11.2204 11.7719ZM8.92437 16.4199L9.8666 16.755L9.86886 16.7485L8.92437 16.4199ZM1.25237 21.5719L0.260244 21.4462L0.258958 21.4573L1.25237 21.5719ZM3.26837 13.9559L2.34487 13.5723L2.34487 13.5723L3.26837 13.9559ZM7.13237 7.45993L6.36044 6.82423L6.36044 6.82423L7.13237 7.45993ZM12.5644 2.97993L12.098 2.09536L12.098 2.09536L12.5644 2.97993ZM24.4924 2.53193L24.0087 3.40717L24.0223 3.41467L24.0361 3.42175L24.4924 2.53193ZM28.0764 5.66794L27.255 6.23833L27.2641 6.25144L27.2736 6.26426L28.0764 5.66794ZM30.2604 10.2039L29.2981 10.4759L29.3008 10.4855L29.3037 10.4951L30.2604 10.2039ZM31.1564 15.7479L30.1571 15.7856L30.1575 15.7956L30.158 15.8055L31.1564 15.7479ZM30.9324 21.5719L29.9413 21.4385L29.9403 21.4462L30.9324 21.5719ZM28.9164 29.1879L29.8377 29.5766L29.8399 29.5715L28.9164 29.1879ZM25.0524 35.6279L24.2804 34.9922L24.273 35.0014L25.0524 35.6279ZM19.6204 40.1079L19.1605 39.2199L19.154 39.2234L19.6204 40.1079ZM7.69237 40.6119L7.20868 41.4872L7.22225 41.4947L7.23605 41.5018L7.69237 40.6119ZM4.10837 37.4759L4.91111 36.8796L4.91111 36.8796L4.10837 37.4759ZM1.92437 32.9399L0.960541 33.2065L0.962058 33.2119L1.92437 32.9399ZM1.02837 27.3959L0.0291061 27.4344L0.0294748 27.444L0.0300273 27.4535L1.02837 27.3959ZM7.63637 21.5719L6.64047 21.4814C6.52642 22.736 6.45062 24.045 6.41275 25.4082L7.41237 25.4359L8.41198 25.4637C8.44878 24.1389 8.52231 22.8719 8.63226 21.6625L7.63637 21.5719ZM7.41237 25.4359L6.41278 25.4074C6.37382 26.7708 6.45162 28.0999 6.64765 29.3937L7.63637 29.2439L8.62508 29.0941C8.44778 27.924 8.37625 26.7144 8.41196 25.4645L7.41237 25.4359ZM7.63637 29.2439L6.64836 29.3983C6.84567 30.6611 7.1634 31.8382 7.60628 32.9252L8.53237 32.5479L9.45846 32.1706C9.08001 31.2417 8.8004 30.2161 8.62438 29.0896L7.63637 29.2439ZM8.53237 32.5479L7.62441 32.967C8.13489 34.073 8.84967 34.9909 9.77432 35.6954L10.3804 34.8999L10.9864 34.1045C10.3431 33.6143 9.82585 32.9642 9.44033 32.1289L8.53237 32.5479ZM10.3804 34.8999L9.7922 35.7087C10.8182 36.4549 12.063 36.7959 13.4604 36.7959V35.7959V34.7959C12.3937 34.7959 11.5852 34.5397 10.9685 34.0912L10.3804 34.8999ZM13.4604 35.7959L13.436 36.7956C15.1549 36.8376 16.7334 36.4155 18.1412 35.5196L17.6044 34.6759L17.0675 33.8323C16.0113 34.5044 14.8272 34.829 13.4848 34.7962L13.4604 35.7959ZM17.6044 34.6759L18.1476 35.5155C19.541 34.6139 20.7361 33.4131 21.737 31.9318L20.9084 31.3719L20.0798 30.8121C19.214 32.0934 18.2064 33.0953 17.0611 33.8364L17.6044 34.6759ZM20.9084 31.3719L21.7266 31.9469C22.7521 30.4875 23.5766 28.8754 24.2026 27.1149L23.2604 26.7799L22.3182 26.4449C21.7494 28.0445 21.006 29.4937 20.0902 30.797L20.9084 31.3719ZM23.2604 26.7799L24.1984 27.1266C24.8584 25.3407 25.3064 23.531 25.5403 21.6986L24.5484 21.5719L23.5564 21.4453C23.3423 23.1222 22.9317 24.7845 22.3224 26.4333L23.2604 26.7799ZM24.5484 21.5719L25.5445 21.6598C25.6583 20.3703 25.7341 19.0625 25.772 17.7365L24.7724 17.7079L23.7728 17.6794C23.736 18.9667 23.6625 20.2349 23.5522 21.484L24.5484 21.5719ZM24.7724 17.7079L25.772 17.7365C25.8109 16.3731 25.7331 15.0439 25.5371 13.7501L24.5484 13.8999L23.5597 14.0497C23.737 15.2199 23.8085 16.4295 23.7728 17.6794L24.7724 17.7079ZM24.5484 13.8999L25.5411 13.7796C25.3812 12.4605 25.0583 11.2559 24.5603 10.1769L23.6524 10.5959L22.7444 11.015C23.1424 11.8773 23.4169 12.8754 23.5556 14.0203L24.5484 13.8999ZM23.6524 10.5959L24.5662 10.1898C24.0512 9.03112 23.3031 8.09368 22.3117 7.41771L21.7484 8.24394L21.185 9.07016C21.8363 9.51419 22.3575 10.1448 22.7386 11.0021L23.6524 10.5959ZM21.7484 8.24394L22.3544 7.4485C21.3669 6.69615 20.1424 6.33445 18.7547 6.29239L18.7244 7.29193L18.6941 8.29148C19.7703 8.32409 20.5618 8.59705 21.1423 9.03937L21.7484 8.24394ZM18.7244 7.29193V6.29193C17.0035 6.29193 15.4144 6.75694 13.9811 7.68437L14.5244 8.52394L15.0676 9.36351C16.173 8.64826 17.3839 8.29193 18.7244 8.29193V7.29193ZM14.5244 8.52394L13.9875 7.68027C12.6292 8.54466 11.4365 9.72508 10.4022 11.197L11.2204 11.7719L12.0386 12.3469C12.9456 11.0561 13.9556 10.0712 15.0612 9.3676L14.5244 8.52394ZM11.2204 11.7719L10.3918 11.2121C9.40579 12.6713 8.6031 14.2996 7.97987 16.0914L8.92437 16.4199L9.86886 16.7485C10.4403 15.1056 11.1683 13.6352 12.049 12.3318L11.2204 11.7719ZM8.92437 16.4199L7.98215 16.0849C7.36328 17.8255 6.91818 19.6057 6.64728 21.4246L7.63637 21.5719L8.62546 21.7192C8.87722 20.0288 9.29079 18.3744 9.86658 16.7549L8.92437 16.4199ZM1.25237 21.5719L2.24443 21.6977C2.56939 19.1341 3.21871 16.6823 4.19186 14.3395L3.26837 13.9559L2.34487 13.5723C1.30202 16.0829 0.60735 18.7084 0.260306 21.4462L1.25237 21.5719ZM3.26837 13.9559L4.19186 14.3395C5.16452 11.998 6.40294 9.91872 7.9043 8.09564L7.13237 7.45993L6.36044 6.82423C4.7258 8.80915 3.38822 11.0606 2.34487 13.5723L3.26837 13.9559ZM7.13237 7.45993L7.9043 8.09564C9.39332 6.28754 11.102 4.88149 13.0308 3.8645L12.5644 2.97993L12.098 2.09536C9.92006 3.24371 8.00741 4.82433 6.36044 6.82423L7.13237 7.45993ZM12.5644 2.97993L13.0308 3.8645C14.9315 2.86231 17.0286 2.35593 19.3404 2.35593V1.35593V0.355935C16.7241 0.355935 14.3039 0.93223 12.098 2.09536L12.5644 2.97993ZM19.3404 1.35593V2.35593C21.2278 2.35593 22.77 2.72265 24.0087 3.40717L24.4924 2.53193L24.9761 1.65669C23.3774 0.773217 21.4849 0.355935 19.3404 0.355935V1.35593ZM24.4924 2.53193L24.0361 3.42175C25.346 4.09352 26.4153 5.02915 27.255 6.23833L28.0764 5.66794L28.8977 5.09754C27.8708 3.61872 26.5507 2.46368 24.9487 1.64212L24.4924 2.53193ZM28.0764 5.66794L27.2736 6.26426C28.1652 7.46441 28.8426 8.8642 29.2981 10.4759L30.2604 10.2039L31.2227 9.93198C30.7075 8.109 29.9289 6.48479 28.8791 5.07161L28.0764 5.66794ZM30.2604 10.2039L29.3037 10.4951C29.7989 12.1222 30.0853 13.8842 30.1571 15.7856L31.1564 15.7479L32.1557 15.7102C32.0781 13.6543 31.7672 11.7204 31.217 9.91277L30.2604 10.2039ZM31.1564 15.7479L30.158 15.8055C30.2663 17.6826 30.1942 19.56 29.9413 21.4385L30.9324 21.5719L31.9234 21.7053C32.1932 19.7012 32.2704 17.6959 32.1547 15.6903L31.1564 15.7479ZM30.9324 21.5719L29.9403 21.4462C29.6154 24.0097 28.966 26.4616 27.9929 28.8043L28.9164 29.1879L29.8399 29.5715C30.8827 27.061 31.5774 24.4355 31.9244 21.6977L30.9324 21.5719ZM28.9164 29.1879L27.995 28.7992C27.0227 31.104 25.7839 33.1667 24.2804 34.9922L25.0524 35.6279L25.8243 36.2636C27.4569 34.2812 28.7941 32.0505 29.8377 29.5766L28.9164 29.1879ZM25.0524 35.6279L24.273 35.0014C22.8261 36.8011 21.123 38.2037 19.1605 39.2199L19.6204 40.1079L20.0802 40.9959C22.2991 39.8469 24.2173 38.2627 25.8317 36.2545L25.0524 35.6279ZM19.6204 40.1079L19.154 39.2234C17.2532 40.2256 15.1561 40.7319 12.8444 40.7319V41.7319V42.7319C15.4606 42.7319 17.8808 42.1556 20.0868 40.9925L19.6204 40.1079ZM12.8444 41.7319V40.7319C10.9915 40.7319 9.43689 40.3827 8.14868 39.7221L7.69237 40.6119L7.23605 41.5018C8.85984 42.3345 10.7399 42.7319 12.8444 42.7319V41.7319ZM7.69237 40.6119L8.17605 39.7367C6.88299 39.0221 5.79695 38.0721 4.91111 36.8796L4.10837 37.4759L3.30562 38.0723C4.36112 39.4931 5.66441 40.6338 7.20868 41.4872L7.69237 40.6119ZM4.10837 37.4759L4.91111 36.8796C4.01957 35.6795 3.34215 34.2797 2.88668 32.668L1.92437 32.9399L0.962058 33.2119C1.47725 35.0349 2.25583 36.6591 3.30562 38.0723L4.10837 37.4759ZM1.92437 32.9399L2.88818 32.6733C2.42295 30.9914 2.1349 29.2138 2.02671 27.3383L1.02837 27.3959L0.0300273 27.4535C0.14583 29.4608 0.455113 31.3792 0.960556 33.2065L1.92437 32.9399ZM1.02837 27.3959L2.02763 27.3575C1.95494 25.4676 2.0276 23.5774 2.24578 21.6866L1.25237 21.5719L0.258958 21.4573C0.0291322 23.4491 -0.0475371 25.4416 0.0291061 27.4344L1.02837 27.3959ZM39.9733 11.1559L38.9886 10.9817L38.7157 12.5238L40.2295 12.1226L39.9733 11.1559ZM41.0933 4.82793L40.876 3.85183L40.2249 3.99678L40.1086 4.65365L41.0933 4.82793ZM56.9413 1.29994L57.9269 1.46882L58.1786 1.20953e-05L56.724 0.323829L56.9413 1.29994ZM50.1093 41.1719V42.1719H50.9525L51.0949 41.3408L50.1093 41.1719ZM43.6693 41.1719L42.6838 41.002L42.4821 42.1719H43.6693V41.1719ZM49.2693 8.69193L50.2548 8.86184L50.5196 7.32601L49.0131 7.72531L49.2693 8.69193ZM39.9733 11.1559L40.958 11.3302L42.078 5.00222L41.0933 4.82793L40.1086 4.65365L38.9886 10.9817L39.9733 11.1559ZM41.0933 4.82793L41.3106 5.80404L57.1586 2.27604L56.9413 1.29994L56.724 0.323829L40.876 3.85183L41.0933 4.82793ZM56.9413 1.29994L55.9557 1.13105L49.1237 41.003L50.1093 41.1719L51.0949 41.3408L57.9269 1.46882L56.9413 1.29994ZM50.1093 41.1719V40.1719H43.6693V41.1719V42.1719H50.1093V41.1719ZM43.6693 41.1719L44.6548 41.3418L50.2548 8.86184L49.2693 8.69193L48.2838 8.52203L42.6838 41.002L43.6693 41.1719ZM49.2693 8.69193L49.0131 7.72531L39.7171 10.1893L39.9733 11.1559L40.2295 12.1226L49.5255 9.65855L49.2693 8.69193Z" fill="white" mask="url(#path-1-outside-1_3025_1478)"/>
</g>
<defs>
<filter id="filter0_d_3025_1478" x="0" y="0" width="59.1787" height="43.7319" filterUnits="userSpaceOnUse" color-interpolation-filters="sRGB">
<feFlood flood-opacity="0" result="BackgroundImageFix"/>
<feColorMatrix in="SourceAlpha" type="matrix" values="0 0 0 0 0 0 0 0 0 0 0 0 0 0 0 0 0 0 127 0" result="hardAlpha"/>
<feOffset dx="1" dy="1"/>
<feComposite in2="hardAlpha" operator="out"/>
<feColorMatrix type="matrix" values="0 0 0 0 1 0 0 0 0 1 0 0 0 0 1 0 0 0 1 0"/>
<feBlend mode="normal" in2="BackgroundImageFix" result="effect1_dropShadow_3025_1478"/>
<feBlend mode="normal" in="SourceGraphic" in2="effect1_dropShadow_3025_1478" result="shape"/>
</filter>
</defs>
</svg>
