<svg width="67" height="44" viewBox="0 0 67 44" fill="none" xmlns="http://www.w3.org/2000/svg">
<g filter="url(#filter0_d_3025_1518)">
<mask id="path-1-outside-1_3025_1518" maskUnits="userSpaceOnUse" x="-0.723633" y="-0.184021" width="66" height="43" fill="black">
<rect fill="white" x="-0.723633" y="-0.184021" width="66" height="43"/>
<path d="M7.63637 21.216C7.52437 22.448 7.4497 23.736 7.41237 25.08C7.37503 26.3866 7.4497 27.656 7.63637 28.888C7.82303 30.0826 8.1217 31.184 8.53237 32.192C8.98037 33.1626 9.59637 33.9466 10.3804 34.544C11.2017 35.1413 12.2284 35.44 13.4604 35.44C14.991 35.4773 16.3724 35.104 17.6044 34.32C18.8737 33.4986 19.975 32.3973 20.9084 31.016C21.879 29.6346 22.663 28.104 23.2604 26.424C23.895 24.7066 24.3244 22.9706 24.5484 21.216C24.6604 19.9466 24.735 18.6586 24.7724 17.352C24.8097 16.0453 24.735 14.776 24.5484 13.544C24.399 12.312 24.1004 11.2106 23.6524 10.24C23.2044 9.23198 22.5697 8.44798 21.7484 7.88798C20.9644 7.29064 19.9564 6.97331 18.7244 6.93598C17.1937 6.93598 15.7937 7.34664 14.5244 8.16798C13.2924 8.95198 12.191 10.0346 11.2204 11.416C10.287 12.7973 9.5217 14.3466 8.92437 16.064C8.32703 17.744 7.8977 19.4613 7.63637 21.216ZM1.25237 21.216C1.58837 18.5653 2.26037 16.0266 3.26837 13.6C4.27637 11.1733 5.56437 9.00798 7.13237 7.10398C8.70037 5.19998 10.511 3.70664 12.5644 2.62398C14.6177 1.54131 16.8764 0.999978 19.3404 0.999978C21.3564 0.999978 23.0737 1.39198 24.4924 2.17598C25.9484 2.92264 27.143 3.96798 28.0764 5.31198C29.047 6.61864 29.775 8.13064 30.2604 9.84798C30.783 11.5653 31.0817 13.4133 31.1564 15.392C31.2684 17.3333 31.1937 19.2746 30.9324 21.216C30.5964 23.8666 29.9244 26.4053 28.9164 28.832C27.9084 31.2213 26.6204 33.368 25.0524 35.272C23.5217 37.176 21.711 38.6693 19.6204 39.752C17.567 40.8346 15.3084 41.376 12.8444 41.376C10.8657 41.376 9.14837 41.0026 7.69237 40.256C6.2737 39.472 5.07903 38.4266 4.10837 37.12C3.1377 35.8133 2.4097 34.3013 1.92437 32.584C1.43903 30.8293 1.14037 28.9813 1.02837 27.04C0.953701 25.0986 1.02837 23.1573 1.25237 21.216ZM48.5973 21.552L49.0453 18.08C50.464 17.968 51.7706 17.6693 52.9653 17.184C54.16 16.6613 55.168 15.952 55.9893 15.056C56.8106 14.16 57.3146 13.1146 57.5013 11.92C57.6506 10.9493 57.5946 10.072 57.3333 9.28798C57.072 8.50398 56.6053 7.86931 55.9333 7.38398C55.2613 6.86131 54.384 6.59998 53.3013 6.59998C52.1813 6.56264 51.1546 6.80531 50.2213 7.32798C49.3253 7.81331 48.56 8.46664 47.9253 9.28798C47.2906 10.1093 46.8426 11.024 46.5813 12.032L40.4773 11.976C40.8506 9.88531 41.6346 8.01864 42.8293 6.37598C44.0613 4.69598 45.592 3.38931 47.4213 2.45598C49.288 1.48531 51.3973 0.999978 53.7493 0.999978C56.0266 0.999978 57.9866 1.48531 59.6293 2.45598C61.272 3.38931 62.4853 4.65864 63.2693 6.26398C64.0906 7.86931 64.352 9.64265 64.0533 11.584C63.8293 13.2266 63.232 14.6826 62.2613 15.952C61.328 17.184 60.152 18.2106 58.7333 19.032C57.3146 19.816 55.728 20.432 53.9733 20.88C52.256 21.2906 50.464 21.5146 48.5973 21.552ZM47.6453 41.488C45.0693 41.4506 42.8666 40.9093 41.0373 39.864C39.2453 38.8186 37.92 37.4 37.0613 35.608C36.24 33.816 35.904 31.8186 36.0533 29.616H42.4933C42.456 30.8106 42.6426 31.8746 43.0533 32.808C43.464 33.704 44.0986 34.4133 44.9573 34.936C45.8533 35.4586 46.9546 35.72 48.2613 35.72C49.568 35.72 50.744 35.4773 51.7893 34.992C52.872 34.4693 53.768 33.76 54.4773 32.864C55.224 31.9306 55.672 30.848 55.8213 29.616C56.008 28.496 55.9333 27.544 55.5973 26.76C55.2986 25.9386 54.7946 25.2666 54.0853 24.744C53.376 24.2213 52.5173 23.8293 51.5093 23.568C50.5386 23.2693 49.4933 23.0826 48.3733 23.008L48.8773 19.256C50.7813 19.2933 52.592 19.536 54.3093 19.984C56.064 20.3946 57.576 21.048 58.8453 21.944C60.152 22.8026 61.1226 23.9226 61.7573 25.304C62.392 26.6853 62.56 28.3653 62.2613 30.344C61.9626 32.584 61.104 34.544 59.6853 36.224C58.304 37.8666 56.568 39.1546 54.4773 40.088C52.3866 41.0213 50.1093 41.488 47.6453 41.488Z"/>
</mask>
<path d="M7.63637 21.216C7.52437 22.448 7.4497 23.736 7.41237 25.08C7.37503 26.3866 7.4497 27.656 7.63637 28.888C7.82303 30.0826 8.1217 31.184 8.53237 32.192C8.98037 33.1626 9.59637 33.9466 10.3804 34.544C11.2017 35.1413 12.2284 35.44 13.4604 35.44C14.991 35.4773 16.3724 35.104 17.6044 34.32C18.8737 33.4986 19.975 32.3973 20.9084 31.016C21.879 29.6346 22.663 28.104 23.2604 26.424C23.895 24.7066 24.3244 22.9706 24.5484 21.216C24.6604 19.9466 24.735 18.6586 24.7724 17.352C24.8097 16.0453 24.735 14.776 24.5484 13.544C24.399 12.312 24.1004 11.2106 23.6524 10.24C23.2044 9.23198 22.5697 8.44798 21.7484 7.88798C20.9644 7.29064 19.9564 6.97331 18.7244 6.93598C17.1937 6.93598 15.7937 7.34664 14.5244 8.16798C13.2924 8.95198 12.191 10.0346 11.2204 11.416C10.287 12.7973 9.5217 14.3466 8.92437 16.064C8.32703 17.744 7.8977 19.4613 7.63637 21.216ZM1.25237 21.216C1.58837 18.5653 2.26037 16.0266 3.26837 13.6C4.27637 11.1733 5.56437 9.00798 7.13237 7.10398C8.70037 5.19998 10.511 3.70664 12.5644 2.62398C14.6177 1.54131 16.8764 0.999978 19.3404 0.999978C21.3564 0.999978 23.0737 1.39198 24.4924 2.17598C25.9484 2.92264 27.143 3.96798 28.0764 5.31198C29.047 6.61864 29.775 8.13064 30.2604 9.84798C30.783 11.5653 31.0817 13.4133 31.1564 15.392C31.2684 17.3333 31.1937 19.2746 30.9324 21.216C30.5964 23.8666 29.9244 26.4053 28.9164 28.832C27.9084 31.2213 26.6204 33.368 25.0524 35.272C23.5217 37.176 21.711 38.6693 19.6204 39.752C17.567 40.8346 15.3084 41.376 12.8444 41.376C10.8657 41.376 9.14837 41.0026 7.69237 40.256C6.2737 39.472 5.07903 38.4266 4.10837 37.12C3.1377 35.8133 2.4097 34.3013 1.92437 32.584C1.43903 30.8293 1.14037 28.9813 1.02837 27.04C0.953701 25.0986 1.02837 23.1573 1.25237 21.216ZM48.5973 21.552L49.0453 18.08C50.464 17.968 51.7706 17.6693 52.9653 17.184C54.16 16.6613 55.168 15.952 55.9893 15.056C56.8106 14.16 57.3146 13.1146 57.5013 11.92C57.6506 10.9493 57.5946 10.072 57.3333 9.28798C57.072 8.50398 56.6053 7.86931 55.9333 7.38398C55.2613 6.86131 54.384 6.59998 53.3013 6.59998C52.1813 6.56264 51.1546 6.80531 50.2213 7.32798C49.3253 7.81331 48.56 8.46664 47.9253 9.28798C47.2906 10.1093 46.8426 11.024 46.5813 12.032L40.4773 11.976C40.8506 9.88531 41.6346 8.01864 42.8293 6.37598C44.0613 4.69598 45.592 3.38931 47.4213 2.45598C49.288 1.48531 51.3973 0.999978 53.7493 0.999978C56.0266 0.999978 57.9866 1.48531 59.6293 2.45598C61.272 3.38931 62.4853 4.65864 63.2693 6.26398C64.0906 7.86931 64.352 9.64265 64.0533 11.584C63.8293 13.2266 63.232 14.6826 62.2613 15.952C61.328 17.184 60.152 18.2106 58.7333 19.032C57.3146 19.816 55.728 20.432 53.9733 20.88C52.256 21.2906 50.464 21.5146 48.5973 21.552ZM47.6453 41.488C45.0693 41.4506 42.8666 40.9093 41.0373 39.864C39.2453 38.8186 37.92 37.4 37.0613 35.608C36.24 33.816 35.904 31.8186 36.0533 29.616H42.4933C42.456 30.8106 42.6426 31.8746 43.0533 32.808C43.464 33.704 44.0986 34.4133 44.9573 34.936C45.8533 35.4586 46.9546 35.72 48.2613 35.72C49.568 35.72 50.744 35.4773 51.7893 34.992C52.872 34.4693 53.768 33.76 54.4773 32.864C55.224 31.9306 55.672 30.848 55.8213 29.616C56.008 28.496 55.9333 27.544 55.5973 26.76C55.2986 25.9386 54.7946 25.2666 54.0853 24.744C53.376 24.2213 52.5173 23.8293 51.5093 23.568C50.5386 23.2693 49.4933 23.0826 48.3733 23.008L48.8773 19.256C50.7813 19.2933 52.592 19.536 54.3093 19.984C56.064 20.3946 57.576 21.048 58.8453 21.944C60.152 22.8026 61.1226 23.9226 61.7573 25.304C62.392 26.6853 62.56 28.3653 62.2613 30.344C61.9626 32.584 61.104 34.544 59.6853 36.224C58.304 37.8666 56.568 39.1546 54.4773 40.088C52.3866 41.0213 50.1093 41.488 47.6453 41.488Z" fill="#023E78"/>
<path d="M7.63637 21.216L6.64728 21.0687L6.64306 21.097L6.64047 21.1254L7.63637 21.216ZM7.41237 25.08L8.41196 25.1085L8.41198 25.1077L7.41237 25.08ZM7.63637 28.888L6.64764 29.0378L6.64836 29.0424L7.63637 28.888ZM8.53237 32.192L7.60628 32.5693L7.61487 32.5904L7.62441 32.611L8.53237 32.192ZM10.3804 34.544L9.77432 35.3394L9.78319 35.3462L9.7922 35.3527L10.3804 34.544ZM13.4604 35.44L13.4848 34.4403L13.4726 34.44H13.4604V35.44ZM17.6044 34.32L18.1413 35.1637L18.1476 35.1595L17.6044 34.32ZM20.9084 31.016L20.0902 30.441L20.0849 30.4485L20.0798 30.4561L20.9084 31.016ZM23.2604 26.424L22.3223 26.0773L22.3182 26.089L23.2604 26.424ZM24.5484 21.216L25.5403 21.3426L25.5428 21.3233L25.5445 21.3039L24.5484 21.216ZM24.7724 17.352L25.772 17.3805L25.772 17.3805L24.7724 17.352ZM24.5484 13.544L23.5556 13.6643L23.5574 13.6791L23.5597 13.6938L24.5484 13.544ZM23.6524 10.24L22.7386 10.6461L22.7414 10.6526L22.7444 10.659L23.6524 10.24ZM21.7484 7.88798L21.1423 8.68341L21.1633 8.69937L21.185 8.71421L21.7484 7.88798ZM18.7244 6.93598L18.7547 5.93644L18.7395 5.93598H18.7244V6.93598ZM14.5244 8.16798L15.0613 9.01167L15.0676 9.00755L14.5244 8.16798ZM11.2204 11.416L10.4022 10.841L10.3969 10.8485L10.3918 10.8561L11.2204 11.416ZM8.92437 16.064L9.8666 16.399L9.86886 16.3925L8.92437 16.064ZM1.25237 21.216L0.260244 21.0902L0.258958 21.1014L1.25237 21.216ZM3.26837 13.6L2.34487 13.2164L2.34487 13.2164L3.26837 13.6ZM7.13237 7.10398L6.36044 6.46827L6.36044 6.46827L7.13237 7.10398ZM12.5644 2.62398L12.098 1.73941L12.098 1.73941L12.5644 2.62398ZM24.4924 2.17598L24.0087 3.05122L24.0223 3.05872L24.0361 3.06579L24.4924 2.17598ZM28.0764 5.31198L27.255 5.88237L27.2641 5.89549L27.2736 5.9083L28.0764 5.31198ZM30.2604 9.84798L29.2981 10.1199L29.3008 10.1296L29.3037 10.1391L30.2604 9.84798ZM31.1564 15.392L30.1571 15.4297L30.1575 15.4396L30.158 15.4496L31.1564 15.392ZM30.9324 21.216L29.9413 21.0826L29.9403 21.0902L30.9324 21.216ZM28.9164 28.832L29.8377 29.2207L29.8399 29.2156L28.9164 28.832ZM25.0524 35.272L24.2804 34.6362L24.273 34.6454L25.0524 35.272ZM19.6204 39.752L19.1605 38.864L19.154 38.8674L19.6204 39.752ZM7.69237 40.256L7.20868 41.1312L7.22225 41.1387L7.23605 41.1458L7.69237 40.256ZM4.10837 37.12L4.91111 36.5237L4.91111 36.5237L4.10837 37.12ZM1.92437 32.584L0.960541 32.8506L0.962058 32.8559L1.92437 32.584ZM1.02837 27.04L0.0291061 27.0784L0.0294748 27.088L0.0300273 27.0976L1.02837 27.04ZM7.63637 21.216L6.64047 21.1254C6.52642 22.38 6.45062 23.689 6.41275 25.0522L7.41237 25.08L8.41198 25.1077C8.44878 23.7829 8.52231 22.5159 8.63226 21.3065L7.63637 21.216ZM7.41237 25.08L6.41278 25.0514C6.37382 26.4148 6.45162 27.744 6.64765 29.0378L7.63637 28.888L8.62508 28.7382C8.44778 27.568 8.37625 26.3585 8.41196 25.1085L7.41237 25.08ZM7.63637 28.888L6.64836 29.0424C6.84567 30.3051 7.1634 31.4822 7.60628 32.5693L8.53237 32.192L9.45846 31.8147C9.08001 30.8857 8.8004 29.8601 8.62438 28.7336L7.63637 28.888ZM8.53237 32.192L7.62441 32.611C8.13489 33.7171 8.84967 34.6349 9.77432 35.3394L10.3804 34.544L10.9864 33.7485C10.3431 33.2584 9.82585 32.6082 9.44033 31.7729L8.53237 32.192ZM10.3804 34.544L9.7922 35.3527C10.8182 36.0989 12.063 36.44 13.4604 36.44V35.44V34.44C12.3937 34.44 11.5852 34.1837 10.9685 33.7352L10.3804 34.544ZM13.4604 35.44L13.436 36.4397C15.1549 36.4816 16.7334 36.0595 18.1412 35.1636L17.6044 34.32L17.0675 33.4763C16.0113 34.1484 14.8272 34.473 13.4848 34.4403L13.4604 35.44ZM17.6044 34.32L18.1476 35.1595C19.541 34.2579 20.7361 33.0572 21.737 31.5758L20.9084 31.016L20.0798 30.4561C19.214 31.7375 18.2064 32.7393 17.0611 33.4804L17.6044 34.32ZM20.9084 31.016L21.7266 31.5909C22.7521 30.1315 23.5766 28.5194 24.2026 26.759L23.2604 26.424L22.3182 26.089C21.7494 27.6885 21.006 29.1377 20.0902 30.441L20.9084 31.016ZM23.2604 26.424L24.1984 26.7706C24.8584 24.9847 25.3064 23.175 25.5403 21.3426L24.5484 21.216L23.5564 21.0893C23.3423 22.7663 22.9317 24.4286 22.3224 26.0773L23.2604 26.424ZM24.5484 21.216L25.5445 21.3039C25.6583 20.0143 25.7341 18.7065 25.772 17.3805L24.7724 17.352L23.7728 17.3234C23.736 18.6108 23.6625 19.879 23.5522 21.1281L24.5484 21.216ZM24.7724 17.352L25.772 17.3805C25.8109 16.0171 25.7331 14.688 25.5371 13.3942L24.5484 13.544L23.5597 13.6938C23.737 14.864 23.8085 16.0735 23.7728 17.3234L24.7724 17.352ZM24.5484 13.544L25.5411 13.4236C25.3812 12.1045 25.0583 10.8999 24.5603 9.82092L23.6524 10.24L22.7444 10.659C23.1424 11.5213 23.4169 12.5194 23.5556 13.6643L24.5484 13.544ZM23.6524 10.24L24.5662 9.83384C24.0512 8.67516 23.3031 7.73772 22.3117 7.06175L21.7484 7.88798L21.185 8.71421C21.8363 9.15824 22.3575 9.78879 22.7386 10.6461L23.6524 10.24ZM21.7484 7.88798L22.3544 7.09255C21.3669 6.34019 20.1424 5.97849 18.7547 5.93644L18.7244 6.93598L18.6941 7.93552C19.7703 7.96813 20.5618 8.2411 21.1423 8.68341L21.7484 7.88798ZM18.7244 6.93598V5.93598C17.0035 5.93598 15.4144 6.40098 13.9811 7.32841L14.5244 8.16798L15.0676 9.00755C16.173 8.29231 17.3839 7.93598 18.7244 7.93598V6.93598ZM14.5244 8.16798L13.9875 7.32432C12.6292 8.18871 11.4365 9.36912 10.4022 10.841L11.2204 11.416L12.0386 11.9909C12.9456 10.7002 13.9556 9.71525 15.0612 9.01164L14.5244 8.16798ZM11.2204 11.416L10.3918 10.8561C9.40579 12.3154 8.6031 13.9437 7.97987 15.7355L8.92437 16.064L9.86886 16.3925C10.4403 14.7496 11.1683 13.2792 12.049 11.9758L11.2204 11.416ZM8.92437 16.064L7.98215 15.729C7.36328 17.4696 6.91818 19.2497 6.64728 21.0687L7.63637 21.216L8.62546 21.3633C8.87722 19.6729 9.29079 18.0184 9.86658 16.399L8.92437 16.064ZM1.25237 21.216L2.24443 21.3417C2.56939 18.7782 3.21871 16.3264 4.19186 13.9836L3.26837 13.6L2.34487 13.2164C1.30202 15.7269 0.60735 18.3524 0.260306 21.0902L1.25237 21.216ZM3.26837 13.6L4.19186 13.9836C5.16452 11.642 6.40294 9.56277 7.9043 7.73968L7.13237 7.10398L6.36044 6.46827C4.7258 8.45319 3.38822 10.7046 2.34487 13.2164L3.26837 13.6ZM7.13237 7.10398L7.9043 7.73968C9.39332 5.93158 11.102 4.52553 13.0308 3.50855L12.5644 2.62398L12.098 1.73941C9.92006 2.88775 8.00741 4.46837 6.36044 6.46827L7.13237 7.10398ZM12.5644 2.62398L13.0308 3.50855C14.9315 2.50635 17.0286 1.99998 19.3404 1.99998V0.999978V-2.24113e-05C16.7241 -2.24113e-05 14.3039 0.576273 12.098 1.73941L12.5644 2.62398ZM19.3404 0.999978V1.99998C21.2278 1.99998 22.77 2.36669 24.0087 3.05122L24.4924 2.17598L24.9761 1.30073C23.3774 0.417259 21.4849 -2.24113e-05 19.3404 -2.24113e-05V0.999978ZM24.4924 2.17598L24.0361 3.06579C25.346 3.73756 26.4153 4.67319 27.255 5.88237L28.0764 5.31198L28.8977 4.74158C27.8708 3.26276 26.5507 2.10773 24.9487 1.28616L24.4924 2.17598ZM28.0764 5.31198L27.2736 5.9083C28.1652 7.10846 28.8426 8.50825 29.2981 10.1199L30.2604 9.84798L31.2227 9.57602C30.7075 7.75304 29.9289 6.12883 28.8791 4.71565L28.0764 5.31198ZM30.2604 9.84798L29.3037 10.1391C29.7989 11.7662 30.0853 13.5282 30.1571 15.4297L31.1564 15.392L32.1557 15.3543C32.0781 13.2984 31.7672 11.3644 31.217 9.55682L30.2604 9.84798ZM31.1564 15.392L30.158 15.4496C30.2663 17.3267 30.1942 19.2041 29.9413 21.0826L30.9324 21.216L31.9234 21.3494C32.1932 19.3452 32.2704 17.3399 32.1547 15.3344L31.1564 15.392ZM30.9324 21.216L29.9403 21.0902C29.6154 23.6538 28.966 26.1056 27.9929 28.4484L28.9164 28.832L29.8399 29.2156C30.8827 26.705 31.5774 24.0795 31.9244 21.3417L30.9324 21.216ZM28.9164 28.832L27.995 28.4433C27.0227 30.7481 25.7839 32.8107 24.2804 34.6363L25.0524 35.272L25.8243 35.9077C27.4569 33.9253 28.7941 31.6946 29.8377 29.2207L28.9164 28.832ZM25.0524 35.272L24.273 34.6454C22.8261 36.4452 21.123 37.8477 19.1605 38.864L19.6204 39.752L20.0802 40.64C22.2991 39.4909 24.2173 37.9068 25.8317 35.8985L25.0524 35.272ZM19.6204 39.752L19.154 38.8674C17.2532 39.8696 15.1561 40.376 12.8444 40.376V41.376V42.376C15.4606 42.376 17.8808 41.7997 20.0868 40.6365L19.6204 39.752ZM12.8444 41.376V40.376C10.9915 40.376 9.43689 40.0268 8.14868 39.3662L7.69237 40.256L7.23605 41.1458C8.85984 41.9785 10.7399 42.376 12.8444 42.376V41.376ZM7.69237 40.256L8.17605 39.3807C6.88299 38.6662 5.79695 37.7161 4.91111 36.5237L4.10837 37.12L3.30562 37.7163C4.36112 39.1372 5.66441 40.2778 7.20868 41.1312L7.69237 40.256ZM4.10837 37.12L4.91111 36.5237C4.01957 35.3235 3.34215 33.9237 2.88668 32.312L1.92437 32.584L0.962058 32.8559C1.47725 34.6789 2.25583 36.3031 3.30562 37.7163L4.10837 37.12ZM1.92437 32.584L2.88818 32.3174C2.42295 30.6354 2.1349 28.8578 2.02671 26.9824L1.02837 27.04L0.0300273 27.0976C0.14583 29.1048 0.455113 31.0232 0.960556 32.8506L1.92437 32.584ZM1.02837 27.04L2.02763 27.0015C1.95494 25.1116 2.0276 23.2214 2.24578 21.3306L1.25237 21.216L0.258958 21.1014C0.0291322 23.0932 -0.0475371 25.0857 0.0291061 27.0784L1.02837 27.04ZM48.5973 21.552L47.6055 21.424L47.457 22.575L48.6173 22.5518L48.5973 21.552ZM49.0453 18.08L48.9666 17.0831L48.1574 17.147L48.0535 17.952L49.0453 18.08ZM52.9653 17.184L53.3417 18.1104L53.354 18.1055L53.3661 18.1001L52.9653 17.184ZM55.9893 15.056L56.7265 15.7317L56.7265 15.7317L55.9893 15.056ZM57.5013 11.92L58.4893 12.0744L58.4897 12.072L57.5013 11.92ZM57.3333 9.28798L56.3846 9.60421L56.3846 9.60421L57.3333 9.28798ZM55.9333 7.38398L55.3194 8.17333L55.3334 8.18425L55.3478 8.19466L55.9333 7.38398ZM53.3013 6.59998L53.268 7.59942L53.2846 7.59998H53.3013V6.59998ZM50.2213 7.32798L50.6976 8.20735L50.7099 8.20048L50.2213 7.32798ZM47.9253 9.28798L48.7166 9.89943L48.7166 9.89942L47.9253 9.28798ZM46.5813 12.032L46.5721 13.0319L47.3533 13.0391L47.5493 12.2829L46.5813 12.032ZM40.4773 11.976L39.4929 11.8002L39.2849 12.9651L40.4681 12.9759L40.4773 11.976ZM42.8293 6.37598L42.0229 5.78461L42.0206 5.78781L42.8293 6.37598ZM47.4213 2.45598L47.8758 3.34676L47.8827 3.34319L47.4213 2.45598ZM59.6293 2.45598L59.1206 3.3169L59.1279 3.32123L59.1353 3.32543L59.6293 2.45598ZM63.2693 6.26398L62.3707 6.70281L62.3748 6.71117L62.3791 6.71945L63.2693 6.26398ZM64.0533 11.584L63.0649 11.4319L63.0636 11.4404L63.0625 11.4489L64.0533 11.584ZM62.2613 15.952L61.4669 15.3445L61.4642 15.3481L62.2613 15.952ZM58.7333 19.032L59.217 19.9072L59.2257 19.9024L59.2343 19.8974L58.7333 19.032ZM53.9733 20.88L54.2059 21.8526L54.2133 21.8508L54.2207 21.8489L53.9733 20.88ZM47.6453 41.488L47.6308 42.4879L47.6381 42.488H47.6453V41.488ZM41.0373 39.864L40.5334 40.7278L40.5412 40.7322L41.0373 39.864ZM37.0613 35.608L36.1522 36.0246L36.1558 36.0324L36.1595 36.0401L37.0613 35.608ZM36.0533 29.616V28.616H35.1188L35.0556 29.5483L36.0533 29.616ZM42.4933 29.616L43.4928 29.6472L43.525 28.616H42.4933V29.616ZM43.0533 32.808L42.138 33.2107L42.1411 33.2177L42.1442 33.2246L43.0533 32.808ZM44.9573 34.936L44.4374 35.7902L44.4454 35.795L44.4534 35.7998L44.9573 34.936ZM51.7893 34.992L52.2104 35.899L52.2173 35.8958L52.2241 35.8925L51.7893 34.992ZM54.4773 32.864L53.6964 32.2393L53.6933 32.2433L54.4773 32.864ZM55.8213 29.616L54.8349 29.4516L54.8313 29.4735L54.8286 29.4956L55.8213 29.616ZM55.5973 26.76L54.6575 27.1017L54.6671 27.1281L54.6782 27.1539L55.5973 26.76ZM54.0853 24.744L53.4921 25.549L53.4921 25.549L54.0853 24.744ZM51.5093 23.568L51.2152 24.5238L51.2366 24.5303L51.2583 24.536L51.5093 23.568ZM48.3733 23.008L47.3822 22.8748L47.2398 23.9346L48.3068 24.0058L48.3733 23.008ZM48.8773 19.256L48.8969 18.2562L48.005 18.2387L47.8862 19.1228L48.8773 19.256ZM54.3093 19.984L54.0569 20.9516L54.0691 20.9548L54.0814 20.9577L54.3093 19.984ZM58.8453 21.944L58.2686 22.7609L58.2822 22.7705L58.2961 22.7797L58.8453 21.944ZM62.2613 30.344L61.2725 30.1947L61.2712 30.2033L61.2701 30.2118L62.2613 30.344ZM59.6853 36.224L58.9213 35.5788L58.9199 35.5804L59.6853 36.224ZM54.4773 40.088L54.0697 39.1748L54.0697 39.1748L54.4773 40.088ZM48.5973 21.552L49.5891 21.6799L50.0371 18.2079L49.0453 18.08L48.0535 17.952L47.6055 21.424L48.5973 21.552ZM49.0453 18.08L49.124 19.0769C50.6344 18.9576 52.0427 18.6382 53.3417 18.1104L52.9653 17.184L52.5889 16.2575C51.4986 16.7005 50.2935 16.9783 48.9666 17.0831L49.0453 18.08ZM52.9653 17.184L53.3661 18.1001C54.679 17.5258 55.8043 16.7377 56.7265 15.7317L55.9893 15.056L55.2522 14.3803C54.5317 15.1662 53.6409 15.7969 52.5645 16.2678L52.9653 17.184ZM55.9893 15.056L56.7265 15.7317C57.6802 14.6912 58.2721 13.4648 58.4893 12.0744L57.5013 11.92L56.5133 11.7656C56.3572 12.7645 55.9411 13.6287 55.2522 14.3803L55.9893 15.056ZM57.5013 11.92L58.4897 12.072C58.6586 10.9738 58.6022 9.93238 58.282 8.97175L57.3333 9.28798L56.3846 9.60421C56.5871 10.2116 56.6426 10.9249 56.5129 11.7679L57.5013 11.92ZM57.3333 9.28798L58.282 8.97175C57.9542 7.9883 57.3601 7.18092 56.5188 6.5733L55.9333 7.38398L55.3478 8.19466C55.8505 8.5577 56.1898 9.01966 56.3846 9.60421L57.3333 9.28798ZM55.9333 7.38398L56.5472 6.59463C55.6568 5.90207 54.5451 5.59998 53.3013 5.59998V6.59998V7.59998C54.2229 7.59998 54.8658 7.82056 55.3194 8.17333L55.9333 7.38398ZM53.3013 6.59998L53.3346 5.60053C52.0414 5.55742 50.8329 5.83935 49.7327 6.45547L50.2213 7.32798L50.7099 8.20048C51.4764 7.77127 52.3212 7.56786 53.268 7.59942L53.3013 6.59998ZM50.2213 7.32798L49.745 6.44868C48.7242 7.00164 47.8522 7.74706 47.134 8.67653L47.9253 9.28798L48.7166 9.89942C49.2677 9.18623 49.9264 8.62498 50.6976 8.20727L50.2213 7.32798ZM47.9253 9.28798L47.134 8.67653C46.4164 9.6052 45.9085 10.6426 45.6133 11.781L46.5813 12.032L47.5493 12.2829C47.7768 11.4054 48.1649 10.6134 48.7166 9.89943L47.9253 9.28798ZM46.5813 12.032L46.5905 11.032L40.4865 10.976L40.4773 11.976L40.4681 12.9759L46.5721 13.0319L46.5813 12.032ZM40.4773 11.976L41.4617 12.1518C41.8097 10.2031 42.5365 8.47881 43.638 6.96415L42.8293 6.37598L42.0206 5.78781C40.7328 7.55847 39.8916 9.56751 39.4929 11.8002L40.4773 11.976ZM42.8293 6.37598L43.6357 6.96734C44.7768 5.41136 46.1876 4.20806 47.8758 3.34674L47.4213 2.45598L46.9668 1.56521C44.9964 2.57056 43.3458 3.9806 42.0229 5.78461L42.8293 6.37598ZM47.4213 2.45598L47.8827 3.34319C49.5907 2.455 51.5387 1.99998 53.7493 1.99998V0.999978V-2.24113e-05C51.2559 -2.24113e-05 48.9852 0.515619 46.96 1.56876L47.4213 2.45598ZM53.7493 0.999978V1.99998C55.8825 1.99998 57.6594 2.45349 59.1206 3.3169L59.6293 2.45598L60.138 1.59505C58.3139 0.517129 56.1708 -2.24113e-05 53.7493 -2.24113e-05V0.999978ZM59.6293 2.45598L59.1353 3.32543C60.6134 4.16529 61.6804 5.28918 62.3707 6.70281L63.2693 6.26398L64.1679 5.82514C63.2903 4.02811 61.9305 2.61333 60.1233 1.58652L59.6293 2.45598ZM63.2693 6.26398L62.3791 6.71945C63.096 8.12076 63.3346 9.67884 63.0649 11.4319L64.0533 11.584L65.0417 11.736C65.3693 9.60645 65.0853 7.61786 64.1596 5.8085L63.2693 6.26398ZM64.0533 11.584L63.0625 11.4489C62.861 12.9264 62.3282 14.2182 61.4669 15.3445L62.2613 15.952L63.0557 16.5594C64.1357 15.1471 64.7976 13.5269 65.0441 11.7191L64.0533 11.584ZM62.2613 15.952L61.4642 15.3481C60.616 16.4678 59.5429 17.4078 58.2323 18.1666L58.7333 19.032L59.2343 19.8974C60.761 19.0135 62.04 17.9002 63.0584 16.5558L62.2613 15.952ZM58.7333 19.032L58.2496 18.1567C56.9135 18.8951 55.4077 19.4817 53.7259 19.9111L53.9733 20.88L54.2207 21.8489C56.0483 21.3823 57.7157 20.7369 59.217 19.9072L58.7333 19.032ZM53.9733 20.88L53.7407 19.9074C52.0969 20.3005 50.3764 20.5162 48.5773 20.5522L48.5973 21.552L48.6173 22.5518C50.5515 22.5131 52.415 22.2808 54.2059 21.8526L53.9733 20.88ZM47.6453 41.488L47.6598 40.4881C45.2156 40.4527 43.1866 39.9404 41.5334 38.9957L41.0373 39.864L40.5412 40.7322C42.5467 41.8782 44.9231 42.4486 47.6308 42.4879L47.6453 41.488ZM41.0373 39.864L41.5412 39.0002C39.914 38.051 38.7314 36.7792 37.9631 35.1759L37.0613 35.608L36.1595 36.0401C37.1086 38.0208 38.5766 39.5863 40.5334 40.7278L41.0373 39.864ZM37.0613 35.608L37.9704 35.1913C37.2265 33.5683 36.9116 31.7403 37.051 29.6836L36.0533 29.616L35.0556 29.5483C34.8964 31.897 35.2535 34.0636 36.1522 36.0246L37.0613 35.608ZM36.0533 29.616V30.616H42.4933V29.616V28.616H36.0533V29.616ZM42.4933 29.616L41.4938 29.5847C41.4526 30.903 41.6577 32.1192 42.138 33.2107L43.0533 32.808L43.9686 32.4052C43.6275 31.6301 43.4593 30.7183 43.4928 29.6472L42.4933 29.616ZM43.0533 32.808L42.1442 33.2246C42.6398 34.3058 43.4118 35.166 44.4374 35.7902L44.9573 34.936L45.4773 34.0818C44.7854 33.6607 44.2881 33.1021 43.9624 32.3913L43.0533 32.808ZM44.9573 34.936L44.4534 35.7998C45.5373 36.432 46.8229 36.72 48.2613 36.72V35.72V34.72C47.0863 34.72 46.1693 34.4853 45.4612 34.0722L44.9573 34.936ZM48.2613 35.72V36.72C49.6939 36.72 51.0165 36.4533 52.2104 35.899L51.7893 34.992L51.3682 34.085C50.4714 34.5013 49.442 34.72 48.2613 34.72V35.72ZM51.7893 34.992L52.2241 35.8925C53.4355 35.3077 54.4533 34.5053 55.2614 33.4847L54.4773 32.864L53.6933 32.2433C53.0826 33.0146 52.3084 33.6309 51.3546 34.0914L51.7893 34.992ZM54.4773 32.864L55.2582 33.4887C56.1256 32.4045 56.6432 31.1454 56.814 29.7363L55.8213 29.616L54.8286 29.4956C54.7007 30.5505 54.3224 31.4568 53.6964 32.2393L54.4773 32.864ZM55.8213 29.616L56.8077 29.7804C57.0156 28.5327 56.949 27.3752 56.5164 26.3661L55.5973 26.76L54.6782 27.1539C54.9177 27.7127 55.0003 28.4592 54.8349 29.4516L55.8213 29.616ZM55.5973 26.76L56.5371 26.4182C56.1705 25.4101 55.5451 24.5775 54.6785 23.9389L54.0853 24.744L53.4921 25.549C54.0442 25.9558 54.4268 26.4672 54.6575 27.1017L55.5973 26.76ZM54.0853 24.744L54.6785 23.9389C53.8497 23.3282 52.8697 22.8876 51.7603 22.6L51.5093 23.568L51.2583 24.536C52.1649 24.771 52.9023 25.1144 53.4921 25.549L54.0853 24.744ZM51.5093 23.568L51.8034 22.6122C50.7515 22.2885 49.6291 22.0895 48.4398 22.0102L48.3733 23.008L48.3068 24.0058C49.3576 24.0758 50.3258 24.2501 51.2152 24.5238L51.5093 23.568ZM48.3733 23.008L49.3644 23.1411L49.8684 19.3891L48.8773 19.256L47.8862 19.1228L47.3822 22.8748L48.3733 23.008ZM48.8773 19.256L48.8577 20.2558C50.6888 20.2917 52.4209 20.5248 54.0569 20.9516L54.3093 19.984L54.5617 19.0164C52.763 18.5471 50.8738 18.2949 48.8969 18.2562L48.8773 19.256ZM54.3093 19.984L54.0814 20.9577C55.7306 21.3436 57.1198 21.95 58.2686 22.7609L58.8453 21.944L59.422 21.127C58.0321 20.1459 56.3973 19.4456 54.5372 19.0103L54.3093 19.984ZM58.8453 21.944L58.2961 22.7797C59.4508 23.5385 60.2945 24.5155 60.8486 25.7215L61.7573 25.304L62.666 24.8865C61.9507 23.3298 60.8531 22.0668 59.3945 21.1083L58.8453 21.944ZM61.7573 25.304L60.8486 25.7215C61.3799 26.8777 61.5511 28.3488 61.2725 30.1947L62.2613 30.344L63.2501 30.4932C63.5688 28.3818 63.4041 26.4929 62.666 24.8865L61.7573 25.304ZM62.2613 30.344L61.2701 30.2118C60.9959 32.2682 60.2132 34.0488 58.9213 35.5788L59.6853 36.224L60.4493 36.8692C61.9947 35.0391 62.9294 32.8998 63.2525 30.4761L62.2613 30.344ZM59.6853 36.224L58.9199 35.5804C57.6424 37.0997 56.0317 38.2989 54.0697 39.1748L54.4773 40.088L54.885 41.0011C57.1043 40.0103 58.9656 38.6336 60.4507 36.8676L59.6853 36.224ZM54.4773 40.088L54.0697 39.1748C52.1168 40.0466 49.9797 40.488 47.6453 40.488V41.488V42.488C50.2389 42.488 52.6565 41.996 54.885 41.0011L54.4773 40.088Z" fill="white" mask="url(#path-1-outside-1_3025_1518)"/>
</g>
<defs>
<filter id="filter0_d_3025_1518" x="0" y="0" width="66.1729" height="43.488" filterUnits="userSpaceOnUse" color-interpolation-filters="sRGB">
<feFlood flood-opacity="0" result="BackgroundImageFix"/>
<feColorMatrix in="SourceAlpha" type="matrix" values="0 0 0 0 0 0 0 0 0 0 0 0 0 0 0 0 0 0 127 0" result="hardAlpha"/>
<feOffset dx="1" dy="1"/>
<feComposite in2="hardAlpha" operator="out"/>
<feColorMatrix type="matrix" values="0 0 0 0 1 0 0 0 0 1 0 0 0 0 1 0 0 0 1 0"/>
<feBlend mode="normal" in2="BackgroundImageFix" result="effect1_dropShadow_3025_1518"/>
<feBlend mode="normal" in="SourceGraphic" in2="effect1_dropShadow_3025_1518" result="shape"/>
</filter>
</defs>
</svg>
