<svg width="68" height="44" viewBox="0 0 68 44" fill="none" xmlns="http://www.w3.org/2000/svg">
<g filter="url(#filter0_d_3025_1494)">
<mask id="path-1-outside-1_3025_1494" maskUnits="userSpaceOnUse" x="-0.723633" y="-0.127991" width="68" height="43" fill="black">
<rect fill="white" x="-0.723633" y="-0.127991" width="68" height="43"/>
<path d="M7.63637 21.272C7.52437 22.504 7.4497 23.792 7.41237 25.136C7.37503 26.4427 7.4497 27.712 7.63637 28.944C7.82303 30.1387 8.1217 31.24 8.53237 32.248C8.98037 33.2187 9.59637 34.0027 10.3804 34.6C11.2017 35.1973 12.2284 35.496 13.4604 35.496C14.991 35.5333 16.3724 35.16 17.6044 34.376C18.8737 33.5547 19.975 32.4533 20.9084 31.072C21.879 29.6907 22.663 28.16 23.2604 26.48C23.895 24.7627 24.3244 23.0267 24.5484 21.272C24.6604 20.0027 24.735 18.7147 24.7724 17.408C24.8097 16.1013 24.735 14.832 24.5484 13.6C24.399 12.368 24.1004 11.2667 23.6524 10.296C23.2044 9.28801 22.5697 8.50401 21.7484 7.94401C20.9644 7.34667 19.9564 7.02934 18.7244 6.99201C17.1937 6.99201 15.7937 7.40268 14.5244 8.22401C13.2924 9.00801 12.191 10.0907 11.2204 11.472C10.287 12.8533 9.5217 14.4027 8.92437 16.12C8.32703 17.8 7.8977 19.5173 7.63637 21.272ZM1.25237 21.272C1.58837 18.6213 2.26037 16.0827 3.26837 13.656C4.27637 11.2293 5.56437 9.06401 7.13237 7.16001C8.70037 5.25601 10.511 3.76267 12.5644 2.68001C14.6177 1.59734 16.8764 1.05601 19.3404 1.05601C21.3564 1.05601 23.0737 1.44801 24.4924 2.23201C25.9484 2.97867 27.143 4.02401 28.0764 5.36801C29.047 6.67467 29.775 8.18667 30.2604 9.90401C30.783 11.6213 31.0817 13.4693 31.1564 15.448C31.2684 17.3893 31.1937 19.3307 30.9324 21.272C30.5964 23.9227 29.9244 26.4613 28.9164 28.888C27.9084 31.2773 26.6204 33.424 25.0524 35.328C23.5217 37.232 21.711 38.7253 19.6204 39.808C17.567 40.8907 15.3084 41.432 12.8444 41.432C10.8657 41.432 9.14837 41.0587 7.69237 40.312C6.2737 39.528 5.07903 38.4827 4.10837 37.176C3.1377 35.8693 2.4097 34.3573 1.92437 32.64C1.43903 30.8853 1.14037 29.0373 1.02837 27.096C0.953701 25.1547 1.02837 23.2133 1.25237 21.272ZM32.4133 40.872L52.8533 21.776C53.824 20.88 54.7013 19.984 55.4853 19.088C56.3066 18.1547 56.9973 17.2027 57.5573 16.232C58.1546 15.224 58.528 14.1787 58.6773 13.096C58.8266 12.0507 58.7146 11.0613 58.3413 10.128C57.968 9.19468 57.352 8.42934 56.4933 7.83201C55.672 7.23468 54.608 6.93601 53.3013 6.93601C51.7333 6.89867 50.3706 7.29067 49.2133 8.11201C48.0933 8.89601 47.16 9.94134 46.4133 11.248C45.704 12.5547 45.2 13.9733 44.9013 15.504L38.4613 15.448C38.9093 12.7973 39.7866 10.3893 41.0933 8.22401C42.4373 6.02134 44.1733 4.26667 46.3013 2.96001C48.4666 1.65334 51.024 1.00001 53.9733 1.00001C56.5866 1.00001 58.7893 1.57867 60.5813 2.73601C62.4106 3.85601 63.7546 5.33067 64.6133 7.16001C65.472 8.95201 65.7333 10.8187 65.3973 12.76C65.136 14.888 64.352 16.904 63.0453 18.808C61.776 20.6747 60.3013 22.336 58.6213 23.792L46.1333 34.656L62.5413 34.712L61.5893 40.872H32.4133Z"/>
</mask>
<path d="M7.63637 21.272C7.52437 22.504 7.4497 23.792 7.41237 25.136C7.37503 26.4427 7.4497 27.712 7.63637 28.944C7.82303 30.1387 8.1217 31.24 8.53237 32.248C8.98037 33.2187 9.59637 34.0027 10.3804 34.6C11.2017 35.1973 12.2284 35.496 13.4604 35.496C14.991 35.5333 16.3724 35.16 17.6044 34.376C18.8737 33.5547 19.975 32.4533 20.9084 31.072C21.879 29.6907 22.663 28.16 23.2604 26.48C23.895 24.7627 24.3244 23.0267 24.5484 21.272C24.6604 20.0027 24.735 18.7147 24.7724 17.408C24.8097 16.1013 24.735 14.832 24.5484 13.6C24.399 12.368 24.1004 11.2667 23.6524 10.296C23.2044 9.28801 22.5697 8.50401 21.7484 7.94401C20.9644 7.34667 19.9564 7.02934 18.7244 6.99201C17.1937 6.99201 15.7937 7.40268 14.5244 8.22401C13.2924 9.00801 12.191 10.0907 11.2204 11.472C10.287 12.8533 9.5217 14.4027 8.92437 16.12C8.32703 17.8 7.8977 19.5173 7.63637 21.272ZM1.25237 21.272C1.58837 18.6213 2.26037 16.0827 3.26837 13.656C4.27637 11.2293 5.56437 9.06401 7.13237 7.16001C8.70037 5.25601 10.511 3.76267 12.5644 2.68001C14.6177 1.59734 16.8764 1.05601 19.3404 1.05601C21.3564 1.05601 23.0737 1.44801 24.4924 2.23201C25.9484 2.97867 27.143 4.02401 28.0764 5.36801C29.047 6.67467 29.775 8.18667 30.2604 9.90401C30.783 11.6213 31.0817 13.4693 31.1564 15.448C31.2684 17.3893 31.1937 19.3307 30.9324 21.272C30.5964 23.9227 29.9244 26.4613 28.9164 28.888C27.9084 31.2773 26.6204 33.424 25.0524 35.328C23.5217 37.232 21.711 38.7253 19.6204 39.808C17.567 40.8907 15.3084 41.432 12.8444 41.432C10.8657 41.432 9.14837 41.0587 7.69237 40.312C6.2737 39.528 5.07903 38.4827 4.10837 37.176C3.1377 35.8693 2.4097 34.3573 1.92437 32.64C1.43903 30.8853 1.14037 29.0373 1.02837 27.096C0.953701 25.1547 1.02837 23.2133 1.25237 21.272ZM32.4133 40.872L52.8533 21.776C53.824 20.88 54.7013 19.984 55.4853 19.088C56.3066 18.1547 56.9973 17.2027 57.5573 16.232C58.1546 15.224 58.528 14.1787 58.6773 13.096C58.8266 12.0507 58.7146 11.0613 58.3413 10.128C57.968 9.19468 57.352 8.42934 56.4933 7.83201C55.672 7.23468 54.608 6.93601 53.3013 6.93601C51.7333 6.89867 50.3706 7.29067 49.2133 8.11201C48.0933 8.89601 47.16 9.94134 46.4133 11.248C45.704 12.5547 45.2 13.9733 44.9013 15.504L38.4613 15.448C38.9093 12.7973 39.7866 10.3893 41.0933 8.22401C42.4373 6.02134 44.1733 4.26667 46.3013 2.96001C48.4666 1.65334 51.024 1.00001 53.9733 1.00001C56.5866 1.00001 58.7893 1.57867 60.5813 2.73601C62.4106 3.85601 63.7546 5.33067 64.6133 7.16001C65.472 8.95201 65.7333 10.8187 65.3973 12.76C65.136 14.888 64.352 16.904 63.0453 18.808C61.776 20.6747 60.3013 22.336 58.6213 23.792L46.1333 34.656L62.5413 34.712L61.5893 40.872H32.4133Z" fill="#023E78"/>
<path d="M7.63637 21.272L6.64728 21.1247L6.64306 21.153L6.64047 21.1815L7.63637 21.272ZM7.41237 25.136L8.41196 25.1646L8.41198 25.1638L7.41237 25.136ZM7.63637 28.944L6.64764 29.0938L6.64836 29.0984L7.63637 28.944ZM8.53237 32.248L7.60628 32.6253L7.61487 32.6464L7.62441 32.6671L8.53237 32.248ZM10.3804 34.6L9.77432 35.3954L9.78319 35.4022L9.7922 35.4087L10.3804 34.6ZM13.4604 35.496L13.4848 34.4963L13.4726 34.496H13.4604V35.496ZM17.6044 34.376L18.1413 35.2197L18.1476 35.2156L17.6044 34.376ZM20.9084 31.072L20.0902 30.4971L20.0849 30.5046L20.0798 30.5122L20.9084 31.072ZM23.2604 26.48L22.3223 26.1333L22.3182 26.145L23.2604 26.48ZM24.5484 21.272L25.5403 21.3986L25.5428 21.3793L25.5445 21.3599L24.5484 21.272ZM24.7724 17.408L25.772 17.4366L25.772 17.4366L24.7724 17.408ZM24.5484 13.6L23.5556 13.7203L23.5574 13.7351L23.5597 13.7498L24.5484 13.6ZM23.6524 10.296L22.7386 10.7021L22.7414 10.7086L22.7444 10.7151L23.6524 10.296ZM21.7484 7.94401L21.1423 8.73944L21.1633 8.7554L21.185 8.77024L21.7484 7.94401ZM18.7244 6.99201L18.7547 5.99247L18.7395 5.99201H18.7244V6.99201ZM14.5244 8.22401L15.0613 9.0677L15.0676 9.06358L14.5244 8.22401ZM11.2204 11.472L10.4022 10.8971L10.3969 10.9046L10.3918 10.9121L11.2204 11.472ZM8.92437 16.12L9.8666 16.455L9.86886 16.4485L8.92437 16.12ZM1.25237 21.272L0.260244 21.1462L0.258958 21.1574L1.25237 21.272ZM3.26837 13.656L2.34487 13.2724L2.34487 13.2724L3.26837 13.656ZM7.13237 7.16001L6.36044 6.5243L6.36044 6.5243L7.13237 7.16001ZM12.5644 2.68001L12.098 1.79544L12.098 1.79544L12.5644 2.68001ZM24.4924 2.23201L24.0087 3.10725L24.0223 3.11475L24.0361 3.12182L24.4924 2.23201ZM28.0764 5.36801L27.255 5.9384L27.2641 5.95152L27.2736 5.96433L28.0764 5.36801ZM30.2604 9.90401L29.2981 10.176L29.3008 10.1856L29.3037 10.1952L30.2604 9.90401ZM31.1564 15.448L30.1571 15.4857L30.1575 15.4957L30.158 15.5056L31.1564 15.448ZM30.9324 21.272L29.9413 21.1386L29.9403 21.1463L30.9324 21.272ZM28.9164 28.888L29.8377 29.2767L29.8399 29.2716L28.9164 28.888ZM25.0524 35.328L24.2804 34.6923L24.273 34.7015L25.0524 35.328ZM19.6204 39.808L19.1605 38.92L19.154 38.9234L19.6204 39.808ZM7.69237 40.312L7.20868 41.1873L7.22225 41.1948L7.23605 41.2018L7.69237 40.312ZM4.10837 37.176L4.91111 36.5797L4.91111 36.5797L4.10837 37.176ZM1.92437 32.64L0.960541 32.9066L0.962058 32.912L1.92437 32.64ZM1.02837 27.096L0.0291061 27.1344L0.0294748 27.144L0.0300273 27.1536L1.02837 27.096ZM7.63637 21.272L6.64047 21.1815C6.52642 22.4361 6.45062 23.7451 6.41275 25.1082L7.41237 25.136L8.41198 25.1638C8.44878 23.839 8.52231 22.572 8.63226 21.3625L7.63637 21.272ZM7.41237 25.136L6.41278 25.1074C6.37382 26.4709 6.45162 27.8 6.64765 29.0938L7.63637 28.944L8.62508 28.7942C8.44778 27.624 8.37625 26.4145 8.41196 25.1646L7.41237 25.136ZM7.63637 28.944L6.64836 29.0984C6.84567 30.3612 7.1634 31.5382 7.60628 32.6253L8.53237 32.248L9.45846 31.8707C9.08001 30.9418 8.8004 29.9162 8.62438 28.7896L7.63637 28.944ZM8.53237 32.248L7.62441 32.6671C8.13489 33.7731 8.84967 34.6909 9.77432 35.3954L10.3804 34.6L10.9864 33.8046C10.3431 33.3144 9.82585 32.6642 9.44033 31.829L8.53237 32.248ZM10.3804 34.6L9.7922 35.4087C10.8182 36.155 12.063 36.496 13.4604 36.496V35.496V34.496C12.3937 34.496 11.5852 34.2397 10.9685 33.7913L10.3804 34.6ZM13.4604 35.496L13.436 36.4957C15.1549 36.5376 16.7334 36.1156 18.1412 35.2197L17.6044 34.376L17.0675 33.5323C16.0113 34.2045 14.8272 34.529 13.4848 34.4963L13.4604 35.496ZM17.6044 34.376L18.1476 35.2156C19.541 34.314 20.7361 33.1132 21.737 31.6319L20.9084 31.072L20.0798 30.5122C19.214 31.7935 18.2064 32.7954 17.0611 33.5364L17.6044 34.376ZM20.9084 31.072L21.7266 31.647C22.7521 30.1876 23.5766 28.5755 24.2026 26.815L23.2604 26.48L22.3182 26.145C21.7494 27.7446 21.006 29.1938 20.0902 30.4971L20.9084 31.072ZM23.2604 26.48L24.1984 26.8267C24.8584 25.0408 25.3064 23.231 25.5403 21.3986L24.5484 21.272L23.5564 21.1454C23.3423 22.8223 22.9317 24.4846 22.3224 26.1334L23.2604 26.48ZM24.5484 21.272L25.5445 21.3599C25.6583 20.0703 25.7341 18.7625 25.772 17.4366L24.7724 17.408L23.7728 17.3794C23.736 18.6668 23.6625 19.935 23.5522 21.1841L24.5484 21.272ZM24.7724 17.408L25.772 17.4366C25.8109 16.0731 25.7331 14.744 25.5371 13.4502L24.5484 13.6L23.5597 13.7498C23.737 14.92 23.8085 16.1295 23.7728 17.3794L24.7724 17.408ZM24.5484 13.6L25.5411 13.4797C25.3812 12.1606 25.0583 10.956 24.5603 9.87695L23.6524 10.296L22.7444 10.7151C23.1424 11.5774 23.4169 12.5755 23.5556 13.7203L24.5484 13.6ZM23.6524 10.296L24.5662 9.88987C24.0512 8.73119 23.3031 7.79375 22.3117 7.11778L21.7484 7.94401L21.185 8.77024C21.8363 9.21427 22.3575 9.84482 22.7386 10.7021L23.6524 10.296ZM21.7484 7.94401L22.3544 7.14858C21.3669 6.39622 20.1424 6.03452 18.7547 5.99247L18.7244 6.99201L18.6941 7.99155C19.7703 8.02416 20.5618 8.29713 21.1423 8.73944L21.7484 7.94401ZM18.7244 6.99201V5.99201C17.0035 5.99201 15.4144 6.45701 13.9811 7.38444L14.5244 8.22401L15.0676 9.06358C16.173 8.34834 17.3839 7.99201 18.7244 7.99201V6.99201ZM14.5244 8.22401L13.9875 7.38035C12.6292 8.24474 11.4365 9.42515 10.4022 10.8971L11.2204 11.472L12.0386 12.047C12.9456 10.7562 13.9556 9.77128 15.0612 9.06767L14.5244 8.22401ZM11.2204 11.472L10.3918 10.9121C9.40579 12.3714 8.6031 13.9997 7.97987 15.7915L8.92437 16.12L9.86886 16.4485C10.4403 14.8057 11.1683 13.3353 12.049 12.0319L11.2204 11.472ZM8.92437 16.12L7.98215 15.785C7.36328 17.5256 6.91818 19.3058 6.64728 21.1247L7.63637 21.272L8.62546 21.4193C8.87722 19.7289 9.29079 18.0744 9.86658 16.455L8.92437 16.12ZM1.25237 21.272L2.24443 21.3978C2.56939 18.8342 3.21871 16.3824 4.19186 14.0396L3.26837 13.656L2.34487 13.2724C1.30202 15.783 0.60735 18.4085 0.260306 21.1463L1.25237 21.272ZM3.26837 13.656L4.19186 14.0396C5.16452 11.698 6.40294 9.6188 7.9043 7.79571L7.13237 7.16001L6.36044 6.5243C4.7258 8.50922 3.38822 10.7606 2.34487 13.2724L3.26837 13.656ZM7.13237 7.16001L7.9043 7.79571C9.39332 5.98761 11.102 4.58156 13.0308 3.56458L12.5644 2.68001L12.098 1.79544C9.92006 2.94378 8.00741 4.5244 6.36044 6.5243L7.13237 7.16001ZM12.5644 2.68001L13.0308 3.56458C14.9315 2.56238 17.0286 2.05601 19.3404 2.05601V1.05601V0.0560079C16.7241 0.0560079 14.3039 0.632303 12.098 1.79544L12.5644 2.68001ZM19.3404 1.05601V2.05601C21.2278 2.05601 22.77 2.42272 24.0087 3.10725L24.4924 2.23201L24.9761 1.35676C23.3774 0.47329 21.4849 0.0560079 19.3404 0.0560079V1.05601ZM24.4924 2.23201L24.0361 3.12182C25.346 3.79359 26.4153 4.72922 27.255 5.9384L28.0764 5.36801L28.8977 4.79761C27.8708 3.31879 26.5507 2.16376 24.9487 1.34219L24.4924 2.23201ZM28.0764 5.36801L27.2736 5.96433C28.1652 7.16449 28.8426 8.56428 29.2981 10.176L30.2604 9.90401L31.2227 9.63205C30.7075 7.80907 29.9289 6.18486 28.8791 4.77168L28.0764 5.36801ZM30.2604 9.90401L29.3037 10.1952C29.7989 11.8222 30.0853 13.5843 30.1571 15.4857L31.1564 15.448L32.1557 15.4103C32.0781 13.3544 31.7672 11.4204 31.217 9.61285L30.2604 9.90401ZM31.1564 15.448L30.158 15.5056C30.2663 17.3827 30.1942 19.2601 29.9413 21.1386L30.9324 21.272L31.9234 21.4054C32.1932 19.4013 32.2704 17.396 32.1547 15.3904L31.1564 15.448ZM30.9324 21.272L29.9403 21.1463C29.6154 23.7098 28.966 26.1616 27.9929 28.5044L28.9164 28.888L29.8399 29.2716C30.8827 26.7611 31.5774 24.1356 31.9244 21.3978L30.9324 21.272ZM28.9164 28.888L27.995 28.4993C27.0227 30.8041 25.7839 32.8667 24.2804 34.6923L25.0524 35.328L25.8243 35.9637C27.4569 33.9813 28.7941 31.7506 29.8377 29.2767L28.9164 28.888ZM25.0524 35.328L24.273 34.7015C22.8261 36.5012 21.123 37.9037 19.1605 38.92L19.6204 39.808L20.0802 40.696C22.2991 39.5469 24.2173 37.9628 25.8317 35.9546L25.0524 35.328ZM19.6204 39.808L19.154 38.9234C17.2532 39.9256 15.1561 40.432 12.8444 40.432V41.432V42.432C15.4606 42.432 17.8808 41.8557 20.0868 40.6926L19.6204 39.808ZM12.8444 41.432V40.432C10.9915 40.432 9.43689 40.0828 8.14868 39.4222L7.69237 40.312L7.23605 41.2018C8.85984 42.0345 10.7399 42.432 12.8444 42.432V41.432ZM7.69237 40.312L8.17605 39.4368C6.88299 38.7222 5.79695 37.7722 4.91111 36.5797L4.10837 37.176L3.30562 37.7723C4.36112 39.1932 5.66441 40.3338 7.20868 41.1873L7.69237 40.312ZM4.10837 37.176L4.91111 36.5797C4.01957 35.3795 3.34215 33.9797 2.88668 32.3681L1.92437 32.64L0.962058 32.912C1.47725 34.7349 2.25583 36.3592 3.30562 37.7723L4.10837 37.176ZM1.92437 32.64L2.88818 32.3734C2.42295 30.6915 2.1349 28.9138 2.02671 27.0384L1.02837 27.096L0.0300273 27.1536C0.14583 29.1609 0.455113 31.0792 0.960556 32.9066L1.92437 32.64ZM1.02837 27.096L2.02763 27.0576C1.95494 25.1676 2.0276 23.2775 2.24578 21.3866L1.25237 21.272L0.258958 21.1574C0.0291322 23.1492 -0.0475371 25.1417 0.0291061 27.1344L1.02837 27.096ZM32.4133 40.872L31.7306 40.1413L29.8781 41.872H32.4133V40.872ZM52.8533 21.776L52.175 21.0412L52.1706 21.0453L52.8533 21.776ZM55.4853 19.088L54.7346 18.4274L54.7327 18.4295L55.4853 19.088ZM57.5573 16.232L56.697 15.7222L56.6911 15.7323L57.5573 16.232ZM58.6773 13.096L57.6873 12.9546L57.6867 12.9594L58.6773 13.096ZM58.3413 10.128L57.4128 10.4994L57.4128 10.4994L58.3413 10.128ZM56.4933 7.83201L55.9051 8.64074L55.9136 8.64692L55.9222 8.65291L56.4933 7.83201ZM53.3013 6.93601L53.2775 7.93573L53.2894 7.93601H53.3013V6.93601ZM49.2133 8.11201L49.7868 8.93126L49.7921 8.92751L49.2133 8.11201ZM46.4133 11.248L45.5451 10.7519L45.5397 10.7613L45.5345 10.7709L46.4133 11.248ZM44.9013 15.504L44.8926 16.504L45.7236 16.5112L45.8828 15.6955L44.9013 15.504ZM38.4613 15.448L37.4753 15.2814L37.2798 16.4378L38.4526 16.448L38.4613 15.448ZM41.0933 8.22401L40.2397 7.70314L40.2371 7.70734L41.0933 8.22401ZM46.3013 2.96001L45.7846 2.10379L45.778 2.10784L46.3013 2.96001ZM60.5813 2.73601L60.0388 3.57605L60.0489 3.58257L60.0592 3.58886L60.5813 2.73601ZM64.6133 7.16001L63.708 7.58493L63.7115 7.59213L64.6133 7.16001ZM65.3973 12.76L64.412 12.5895L64.4078 12.6137L64.4048 12.6381L65.3973 12.76ZM63.0453 18.808L62.2208 18.2422L62.2184 18.2457L63.0453 18.808ZM58.6213 23.792L57.9664 23.0363L57.965 23.0375L58.6213 23.792ZM46.1333 34.656L45.477 33.9015L43.4707 35.6469L46.1299 35.656L46.1333 34.656ZM62.5413 34.712L63.5296 34.8647L63.7071 33.716L62.5447 33.712L62.5413 34.712ZM61.5893 40.872V41.872H62.4466L62.5776 41.0247L61.5893 40.872ZM32.4133 40.872L33.096 41.6027L53.536 22.5067L52.8533 21.776L52.1706 21.0453L31.7306 40.1413L32.4133 40.872ZM52.8533 21.776L53.5316 22.5108C54.5256 21.5933 55.4281 20.672 56.2379 19.7465L55.4853 19.088L54.7327 18.4295C53.9745 19.2961 53.1224 20.1667 52.175 21.0412L52.8533 21.776ZM55.4853 19.088L56.236 19.7486C57.0964 18.7709 57.8271 17.7656 58.4235 16.7317L57.5573 16.232L56.6911 15.7323C56.1676 16.6398 55.5169 17.5384 54.7346 18.4274L55.4853 19.088ZM57.5573 16.232L58.4176 16.7418C59.0778 15.6277 59.4991 14.4564 59.6679 13.2326L58.6773 13.096L57.6867 12.9594C57.5568 13.9009 57.2315 14.8203 56.697 15.7222L57.5573 16.232ZM58.6773 13.096L59.6673 13.2374C59.8401 12.0278 59.7115 10.8609 59.2698 9.75662L58.3413 10.128L57.4128 10.4994C57.7178 11.2618 57.8132 12.0735 57.6874 12.9546L58.6773 13.096ZM58.3413 10.128L59.2698 9.75662C58.8208 8.6341 58.0767 7.71532 57.0644 7.0111L56.4933 7.83201L55.9222 8.65291C56.6273 9.14336 57.1152 9.75525 57.4128 10.4994L58.3413 10.128ZM56.4933 7.83201L57.0815 7.02327C56.0459 6.27015 54.7586 5.93601 53.3013 5.93601V6.93601V7.93601C54.4573 7.93601 55.298 8.1992 55.9051 8.64074L56.4933 7.83201ZM53.3013 6.93601L53.3251 5.93629C51.5655 5.8944 49.9862 6.33729 48.6346 7.2965L49.2133 8.11201L49.7921 8.92751C50.7551 8.24406 51.9011 7.90295 53.2775 7.93573L53.3013 6.93601ZM49.2133 8.11201L48.6398 7.29278C47.3872 8.16963 46.3575 9.33014 45.5451 10.7519L46.4133 11.248L47.2815 11.7441C47.9625 10.5525 48.7994 9.62239 49.7868 8.93124L49.2133 8.11201ZM46.4133 11.248L45.5345 10.7709C44.7742 12.1713 44.237 13.6869 43.9198 15.3125L44.9013 15.504L45.8828 15.6955C46.1629 14.2598 46.6337 12.9381 47.2922 11.7251L46.4133 11.248ZM44.9013 15.504L44.91 14.504L38.47 14.448L38.4613 15.448L38.4526 16.448L44.8926 16.504L44.9013 15.504ZM38.4613 15.448L39.4473 15.6147C39.8757 13.0799 40.7117 10.7919 41.9495 8.74067L41.0933 8.22401L40.2371 7.70734C38.8616 9.9868 37.9429 12.5148 37.4753 15.2814L38.4613 15.448ZM41.0933 8.22401L41.9469 8.74487C43.2114 6.67256 44.8359 5.03328 46.8246 3.81218L46.3013 2.96001L45.778 2.10784C43.5107 3.50006 41.6632 5.37012 40.2397 7.70314L41.0933 8.22401ZM46.3013 2.96001L46.818 3.81619C48.8031 2.6183 51.1754 2.00001 53.9733 2.00001V1.00001V8.58307e-06C50.8725 8.58307e-06 48.1302 0.688386 45.7846 2.10382L46.3013 2.96001ZM53.9733 1.00001V2.00001C56.4377 2.00001 58.4415 2.54448 60.0388 3.57605L60.5813 2.73601L61.1238 1.89597C59.1371 0.612872 56.7356 8.58307e-06 53.9733 8.58307e-06V1.00001ZM60.5813 2.73601L60.0592 3.58886C61.7325 4.61333 62.9377 5.94371 63.7081 7.58491L64.6133 7.16001L65.5185 6.7351C64.5716 4.71764 63.0888 3.09869 61.1035 1.88316L60.5813 2.73601ZM64.6133 7.16001L63.7115 7.59213C64.4812 9.19852 64.7122 10.8547 64.412 12.5895L65.3973 12.76L66.3827 12.9305C66.7544 10.7827 66.4627 8.7055 65.5151 6.72789L64.6133 7.16001ZM65.3973 12.76L64.4048 12.6381C64.1645 14.5947 63.4438 16.4601 62.2208 18.2422L63.0453 18.808L63.8698 19.3739C65.2601 17.3479 66.1075 15.1813 66.3898 12.8819L65.3973 12.76ZM63.0453 18.808L62.2184 18.2457C60.997 20.0418 59.5799 21.6379 57.9664 23.0363L58.6213 23.792L59.2762 24.5477C61.0227 23.0341 62.5549 21.3075 63.8722 19.3703L63.0453 18.808ZM58.6213 23.792L57.965 23.0375L45.477 33.9015L46.1333 34.656L46.7897 35.4105L59.2777 24.5465L58.6213 23.792ZM46.1333 34.656L46.1299 35.656L62.5379 35.712L62.5413 34.712L62.5447 33.712L46.1367 33.656L46.1333 34.656ZM62.5413 34.712L61.553 34.5593L60.601 40.7193L61.5893 40.872L62.5776 41.0247L63.5296 34.8647L62.5413 34.712ZM61.5893 40.872V39.872H32.4133V40.872V41.872H61.5893V40.872Z" fill="white" mask="url(#path-1-outside-1_3025_1494)"/>
</g>
<defs>
<filter id="filter0_d_3025_1494" x="0" y="0" width="67.5391" height="43.432" filterUnits="userSpaceOnUse" color-interpolation-filters="sRGB">
<feFlood flood-opacity="0" result="BackgroundImageFix"/>
<feColorMatrix in="SourceAlpha" type="matrix" values="0 0 0 0 0 0 0 0 0 0 0 0 0 0 0 0 0 0 127 0" result="hardAlpha"/>
<feOffset dx="1" dy="1"/>
<feComposite in2="hardAlpha" operator="out"/>
<feColorMatrix type="matrix" values="0 0 0 0 1 0 0 0 0 1 0 0 0 0 1 0 0 0 1 0"/>
<feBlend mode="normal" in2="BackgroundImageFix" result="effect1_dropShadow_3025_1494"/>
<feBlend mode="normal" in="SourceGraphic" in2="effect1_dropShadow_3025_1494" result="shape"/>
</filter>
</defs>
</svg>
