<svg width="45" height="40" viewBox="0 0 45 40" fill="none" xmlns="http://www.w3.org/2000/svg">
<path d="M37.2695 12.2258C36.8658 10.5594 35.6803 9.25156 34.1745 8.80859C31.4447 8 20.5 8 20.5 8C20.5 8 9.55529 8 6.82552 8.80859C5.31966 9.25156 4.1342 10.5594 3.7305 12.2258C3 15.2422 3 21.5281 3 21.5281C3 21.5281 3 27.8141 3.7305 30.8305C4.1342 32.4969 5.31966 33.7484 6.82552 34.1914C9.55529 35 20.5 35 20.5 35C20.5 35 31.4447 35 34.1745 34.1914C35.6803 33.7484 36.8658 32.4898 37.2695 30.8305C38 27.8141 38 21.5281 38 21.5281C38 21.5281 38 15.2422 37.2695 12.2258ZM16.9244 27.2375V15.8187L26.0685 21.5281L16.9244 27.2375Z" fill="#0961B6"/>
</svg>
